<svg id="eecdm2EBi3G1" xmlns="http://www.w3.org/2000/svg" xmlns:xlink="http://www.w3.org/1999/xlink" viewBox="0 0 2475 1650" shape-rendering="geometricPrecision" text-rendering="geometricPrecision">
<style><![CDATA[
#eecdm2EBi3G6_tr {animation: eecdm2EBi3G6_tr__tr 3000ms linear infinite normal forwards}@keyframes eecdm2EBi3G6_tr__tr { 0% {transform: translate(1251.564087px,782.604996px) rotate(0deg)} 50% {transform: translate(1251.564087px,782.604996px) rotate(5deg)} 100% {transform: translate(1251.564087px,782.604996px) rotate(0deg)}} #eecdm2EBi3G6_ts {animation: eecdm2EBi3G6_ts__ts 3000ms linear infinite normal forwards}@keyframes eecdm2EBi3G6_ts__ts { 0% {transform: scale(1,1)} 50% {transform: scale(1,1.2)} 100% {transform: scale(1,1)}} #eecdm2EBi3G7_tr {animation: eecdm2EBi3G7_tr__tr 3000ms linear infinite normal forwards}@keyframes eecdm2EBi3G7_tr__tr { 0% {transform: translate(1970.867798px,992.980713px) rotate(-1.55078deg)} 23.333333% {transform: translate(1970.867798px,992.980713px) rotate(-5.923012deg)} 50% {transform: translate(1970.867798px,992.980713px) rotate(15deg)} 76.666667% {transform: translate(1970.867798px,992.980713px) rotate(-5.923012deg)} 100% {transform: translate(1970.867798px,992.980713px) rotate(15deg)}} #eecdm2EBi3G10_tr {animation: eecdm2EBi3G10_tr__tr 3000ms linear infinite normal forwards}@keyframes eecdm2EBi3G10_tr__tr { 0% {transform: translate(1926.527039px,670.637482px) rotate(10deg)} 50% {transform: translate(1926.527039px,670.637482px) rotate(20.4deg)} 100% {transform: translate(1926.527039px,670.637482px) rotate(-12.708476deg)}} #eecdm2EBi3G13_tr {animation: eecdm2EBi3G13_tr__tr 3000ms linear infinite normal forwards}@keyframes eecdm2EBi3G13_tr__tr { 0% {transform: translate(674.93396px,749.636932px) rotate(10deg)} 50% {transform: translate(674.93396px,749.636932px) rotate(-12.708476deg)} 100% {transform: translate(674.93396px,749.636932px) rotate(20.4deg)}} #eecdm2EBi3G16_tr {animation: eecdm2EBi3G16_tr__tr 3000ms linear infinite normal forwards}@keyframes eecdm2EBi3G16_tr__tr { 0% {transform: translate(523.161606px,879.796906px) rotate(-1.55078deg)} 23.333333% {transform: translate(523.161606px,879.796906px) rotate(-5.923012deg)} 50% {transform: translate(523.161606px,879.796906px) rotate(15deg)} 76.666667% {transform: translate(523.161606px,879.796906px) rotate(-5.923012deg)} 100% {transform: translate(523.161606px,879.796906px) rotate(15deg)}} #eecdm2EBi3G20_ts {animation: eecdm2EBi3G20_ts__ts 3000ms linear infinite normal forwards}@keyframes eecdm2EBi3G20_ts__ts { 0% {transform: translate(1290.493835px,822.748718px) scale(1,1)} 23.333333% {transform: translate(1290.493835px,822.748718px) scale(1.09516,1.1)} 100% {transform: translate(1290.493835px,822.748718px) scale(1,1)}} #eecdm2EBi3G45_tr {animation: eecdm2EBi3G45_tr__tr 3000ms linear infinite normal forwards}@keyframes eecdm2EBi3G45_tr__tr { 0% {transform: translate(750.736422px,474.018725px) rotate(-4.722612deg)} 50% {transform: translate(750.736422px,474.018725px) rotate(22.083242deg)} 100% {transform: translate(750.736422px,474.018725px) rotate(-5deg)}} #eecdm2EBi3G49_to {animation: eecdm2EBi3G49_to__to 3000ms linear infinite normal forwards}@keyframes eecdm2EBi3G49_to__to { 0% {transform: translate(1292.279053px,585.231506px)} 50% {transform: translate(1290.487833px,665.074242px)} 100% {transform: translate(1292.279053px,585.231506px)}} #eecdm2EBi3G53_ts {animation: eecdm2EBi3G53_ts__ts 3000ms linear infinite normal forwards}@keyframes eecdm2EBi3G53_ts__ts { 0% {transform: translate(753.68454px,1171.40567px) scale(1,1)} 50% {transform: translate(753.68454px,1171.40567px) scale(0.894848,0.9)} 100% {transform: translate(753.68454px,1171.40567px) scale(1,1)}} #eecdm2EBi3G74_ts {animation: eecdm2EBi3G74_ts__ts 3000ms linear infinite normal forwards}@keyframes eecdm2EBi3G74_ts__ts { 0% {transform: translate(1813.00592px,1166.167847px) scale(1,1)} 50% {transform: translate(1813.00592px,1166.167847px) scale(1.170256,1.15)} 100% {transform: translate(1813.00592px,1166.167847px) scale(1,1)}} #eecdm2EBi3G95_to {animation: eecdm2EBi3G95_to__to 3000ms linear infinite normal forwards}@keyframes eecdm2EBi3G95_to__to { 0% {transform: translate(1676.671407px,1290.710949px)} 100% {transform: translate(1837.296448px,1290.447449px)}} #eecdm2EBi3G96_ts {animation: eecdm2EBi3G96_ts__ts 3000ms linear infinite normal forwards}@keyframes eecdm2EBi3G96_ts__ts { 0% {transform: translate(1809.992432px,1108.279053px) scale(1,1)} 50% {transform: translate(1809.992432px,1108.279053px) scale(1.473869,1.5)} 100% {transform: translate(1809.992432px,1108.279053px) scale(1,1)}} #eecdm2EBi3G122_tr {animation: eecdm2EBi3G122_tr__tr 3000ms linear infinite normal forwards}@keyframes eecdm2EBi3G122_tr__tr { 0% {transform: translate(377.810108px,1159.336812px) rotate(-5deg)} 50% {transform: translate(377.810108px,1159.336812px) rotate(4.786533deg)} 100% {transform: translate(377.810108px,1159.336812px) rotate(-5deg)}} #eecdm2EBi3G130_tr {animation: eecdm2EBi3G130_tr__tr 3000ms linear infinite normal forwards}@keyframes eecdm2EBi3G130_tr__tr { 0% {transform: translate(380.90033px,1388.679046px) rotate(0deg)} 50% {transform: translate(380.90033px,1388.679046px) rotate(10.766104deg)} 100% {transform: translate(380.90033px,1388.679046px) rotate(0deg)}} #eecdm2EBi3G144_tr {animation: eecdm2EBi3G144_tr__tr 3000ms linear infinite normal forwards}@keyframes eecdm2EBi3G144_tr__tr { 0% {transform: translate(861.52652px,750.104309px) rotate(25.611408deg)} 50% {transform: translate(861.52652px,750.104309px) rotate(-16.488121deg)} 100% {transform: translate(861.52652px,750.104309px) rotate(13.733729deg)}} #eecdm2EBi3G148_tr {animation: eecdm2EBi3G148_tr__tr 3000ms linear infinite normal forwards}@keyframes eecdm2EBi3G148_tr__tr { 0% {transform: translate(1720.593628px,727.594513px) rotate(0deg)} 50% {transform: translate(1720.593628px,727.594513px) rotate(25.611408deg)} 100% {transform: translate(1720.593628px,727.594513px) rotate(0deg)}} #eecdm2EBi3G152_tr {animation: eecdm2EBi3G152_tr__tr 3000ms linear infinite normal forwards}@keyframes eecdm2EBi3G152_tr__tr { 0% {transform: translate(1408.752px,1383.173311px) rotate(-1.55078deg)} 50% {transform: translate(1408.752px,1383.173311px) rotate(-22.391647deg)} 100% {transform: translate(1408.752px,1383.173311px) rotate(15deg)}} #eecdm2EBi3G155_tr {animation: eecdm2EBi3G155_tr__tr 3000ms linear infinite normal forwards}@keyframes eecdm2EBi3G155_tr__tr { 0% {transform: translate(1411.568299px,1388.679045px) rotate(-22.391647deg)} 50% {transform: translate(1411.568299px,1388.679045px) rotate(15deg)} 100% {transform: translate(1411.568299px,1388.679045px) rotate(-1.55078deg)}}
]]></style>
<defs><linearGradient id="eecdm2EBi3G6-fill" x1="31.6422" y1="1801.7932" x2="2307.8787" y2="148.8116" spreadMethod="pad" gradientUnits="userSpaceOnUse" gradientTransform="translate(0 0)"><stop id="eecdm2EBi3G6-fill-0" offset="0%" stop-color="#dae3fe"/><stop id="eecdm2EBi3G6-fill-1" offset="100%" stop-color="#e9effd"/></linearGradient><linearGradient id="eecdm2EBi3G22-fill" x1="1347.9021" y1="1025.6547" x2="1125.879" y2="1700.723" spreadMethod="pad" gradientUnits="userSpaceOnUse" gradientTransform="translate(0 0)"><stop id="eecdm2EBi3G22-fill-0" offset="0%" stop-color="#7b1fa2"/><stop id="eecdm2EBi3G22-fill-1" offset="100%" stop-color="#1a0f91"/></linearGradient><linearGradient id="eecdm2EBi3G23-fill" x1="1290.6552" y1="1143.0144" x2="1266.6526" y2="1458.0463" spreadMethod="pad" gradientUnits="userSpaceOnUse" gradientTransform="translate(0 0)"><stop id="eecdm2EBi3G23-fill-0" offset="0%" stop-color="#7b1fa2"/><stop id="eecdm2EBi3G23-fill-1" offset="100%" stop-color="#1a0f91"/></linearGradient><linearGradient id="eecdm2EBi3G24-fill" x1="1294.9009" y1="103.3035" x2="1285.9" y2="1039.394" spreadMethod="pad" gradientUnits="userSpaceOnUse" gradientTransform="translate(0 0)"><stop id="eecdm2EBi3G24-fill-0" offset="0%" stop-color="#7b1fa2"/><stop id="eecdm2EBi3G24-fill-1" offset="100%" stop-color="#1a0f91"/></linearGradient><linearGradient id="eecdm2EBi3G25-fill" x1="1759.1741" y1="151.5236" x2="691.0679" y2="1279.637" spreadMethod="pad" gradientUnits="userSpaceOnUse" gradientTransform="translate(0 0)"><stop id="eecdm2EBi3G25-fill-0" offset="0%" stop-color="#fe7062"/><stop id="eecdm2EBi3G25-fill-1" offset="100%" stop-color="#30c59b"/></linearGradient><linearGradient id="eecdm2EBi3G29-fill" x1="1292.2794" y1="1328.9375" x2="1318.8381" y2="1328.9375" spreadMethod="pad" gradientUnits="userSpaceOnUse" gradientTransform="translate(0 0)"><stop id="eecdm2EBi3G29-fill-0" offset="0%" stop-color="#9232b1"/><stop id="eecdm2EBi3G29-fill-1" offset="100%" stop-color="#b562d1"/></linearGradient><linearGradient id="eecdm2EBi3G30-fill" x1="995.9041" y1="1350.1282" x2="1262.1801" y2="1350.1282" spreadMethod="pad" gradientUnits="userSpaceOnUse" gradientTransform="translate(0 0)"><stop id="eecdm2EBi3G30-fill-0" offset="0%" stop-color="#9232b1"/><stop id="eecdm2EBi3G30-fill-1" offset="100%" stop-color="#b562d1"/></linearGradient><linearGradient id="eecdm2EBi3G36-fill" x1="1409.7048" y1="-135.2939" x2="911.6546" y2="1118.8308" spreadMethod="pad" gradientUnits="userSpaceOnUse" gradientTransform="translate(0 0)"><stop id="eecdm2EBi3G36-fill-0" offset="0%" stop-color="#30c59b"/><stop id="eecdm2EBi3G36-fill-1" offset="100%" stop-color="#fbc638"/></linearGradient><linearGradient id="eecdm2EBi3G37-fill" x1="1495.3096" y1="-101.2973" x2="997.259" y2="1152.8281" spreadMethod="pad" gradientUnits="userSpaceOnUse" gradientTransform="translate(0 0)"><stop id="eecdm2EBi3G37-fill-0" offset="0%" stop-color="#30c59b"/><stop id="eecdm2EBi3G37-fill-1" offset="100%" stop-color="#fbc638"/></linearGradient><linearGradient id="eecdm2EBi3G40-fill" x1="1970.5779" y1="87.445" x2="1472.527" y2="1341.5712" spreadMethod="pad" gradientUnits="userSpaceOnUse" gradientTransform="translate(0 0)"><stop id="eecdm2EBi3G40-fill-0" offset="0%" stop-color="#30c59b"/><stop id="eecdm2EBi3G40-fill-1" offset="100%" stop-color="#fbc638"/></linearGradient><linearGradient id="eecdm2EBi3G43-fill" x1="1362.3643" y1="-154.0956" x2="864.3138" y2="1100.0297" spreadMethod="pad" gradientUnits="userSpaceOnUse" gradientTransform="translate(0 0)"><stop id="eecdm2EBi3G43-fill-0" offset="0%" stop-color="#30c59b"/><stop id="eecdm2EBi3G43-fill-1" offset="100%" stop-color="#fbc638"/></linearGradient><linearGradient id="eecdm2EBi3G46-fill" x1="871.2744" y1="260.7905" x2="596.2539" y2="742.4116" spreadMethod="pad" gradientUnits="userSpaceOnUse" gradientTransform="translate(0 0)"><stop id="eecdm2EBi3G46-fill-0" offset="0%" stop-color="#9232b1"/><stop id="eecdm2EBi3G46-fill-1" offset="100%" stop-color="#b562d1"/></linearGradient><linearGradient id="eecdm2EBi3G48-fill" x1="883.1584" y1="267.5763" x2="608.1377" y2="749.1978" spreadMethod="pad" gradientUnits="userSpaceOnUse" gradientTransform="translate(0 0)"><stop id="eecdm2EBi3G48-fill-0" offset="0%" stop-color="#9232b1"/><stop id="eecdm2EBi3G48-fill-1" offset="100%" stop-color="#b562d1"/></linearGradient><linearGradient id="eecdm2EBi3G50-fill" x1="1464.0419" y1="388.4252" x2="1337.0189" y2="821.6953" spreadMethod="pad" gradientUnits="userSpaceOnUse" gradientTransform="translate(0 0)"><stop id="eecdm2EBi3G50-fill-0" offset="0%" stop-color="#9232b1"/><stop id="eecdm2EBi3G50-fill-1" offset="100%" stop-color="#b562d1"/></linearGradient><linearGradient id="eecdm2EBi3G51-fill" x1="1352.2052" y1="227.4488" x2="1210.2054" y2="519.4487" spreadMethod="pad" gradientUnits="userSpaceOnUse" gradientTransform="translate(0 0)"><stop id="eecdm2EBi3G51-fill-0" offset="0%" stop-color="#7b1fa2"/><stop id="eecdm2EBi3G51-fill-1" offset="100%" stop-color="#1a0f91"/></linearGradient><linearGradient id="eecdm2EBi3G52-fill" x1="1455.505" y1="385.9225" x2="1328.4821" y2="819.1924" spreadMethod="pad" gradientUnits="userSpaceOnUse" gradientTransform="translate(0 0)"><stop id="eecdm2EBi3G52-fill-0" offset="0%" stop-color="#9232b1"/><stop id="eecdm2EBi3G52-fill-1" offset="100%" stop-color="#b562d1"/></linearGradient><linearGradient id="eecdm2EBi3G55-fill" x1="747.7888" y1="907.254" x2="731.0889" y2="1735.5703" spreadMethod="pad" gradientUnits="userSpaceOnUse" gradientTransform="translate(0 0)"><stop id="eecdm2EBi3G55-fill-0" offset="0%" stop-color="#7b1fa2"/><stop id="eecdm2EBi3G55-fill-1" offset="100%" stop-color="#1a0f91"/></linearGradient><linearGradient id="eecdm2EBi3G56-fill" x1="1289.2555" y1="1495.9254" x2="372.7186" y2="911.8357" spreadMethod="pad" gradientUnits="userSpaceOnUse" gradientTransform="translate(0 0)"><stop id="eecdm2EBi3G56-fill-0" offset="0%" stop-color="#9232b1"/><stop id="eecdm2EBi3G56-fill-1" offset="100%" stop-color="#b562d1"/></linearGradient><linearGradient id="eecdm2EBi3G61-fill" x1="823.5953" y1="964.3144" x2="773.4318" y2="1315.4592" spreadMethod="pad" gradientUnits="userSpaceOnUse" gradientTransform="translate(0 0)"><stop id="eecdm2EBi3G61-fill-0" offset="0%" stop-color="#7b1fa2"/><stop id="eecdm2EBi3G61-fill-1" offset="100%" stop-color="#1a0f91"/></linearGradient><linearGradient id="eecdm2EBi3G76-fill" x1="1968.8281" y1="736.3307" x2="1671.1765" y2="1549.4296" spreadMethod="pad" gradientUnits="userSpaceOnUse" gradientTransform="translate(0 0)"><stop id="eecdm2EBi3G76-fill-0" offset="0%" stop-color="#7b1fa2"/><stop id="eecdm2EBi3G76-fill-1" offset="100%" stop-color="#1a0f91"/></linearGradient><linearGradient id="eecdm2EBi3G77-fill" x1="2064.6489" y1="872.3613" x2="1534.7593" y2="1433.0999" spreadMethod="pad" gradientUnits="userSpaceOnUse" gradientTransform="translate(0 0)"><stop id="eecdm2EBi3G77-fill-0" offset="0%" stop-color="#9232b1"/><stop id="eecdm2EBi3G77-fill-1" offset="100%" stop-color="#b562d1"/></linearGradient><linearGradient id="eecdm2EBi3G82-fill" x1="1829.917642" y1="1263.550843" x2="1752.491161" y2="1541.541566" spreadMethod="pad" gradientUnits="userSpaceOnUse" gradientTransform="translate(0 0)"><stop id="eecdm2EBi3G82-fill-0" offset="0%" stop-color="#fe7062"/><stop id="eecdm2EBi3G82-fill-1" offset="100%" stop-color="#30c59b"/></linearGradient><linearGradient id="eecdm2EBi3G86-fill" x1="1897.89829" y1="1273.149112" x2="1820.471909" y2="1551.139835" spreadMethod="pad" gradientUnits="userSpaceOnUse" gradientTransform="translate(0 0)"><stop id="eecdm2EBi3G86-fill-0" offset="0%" stop-color="#fe7062"/><stop id="eecdm2EBi3G86-fill-1" offset="100%" stop-color="#30c59b"/></linearGradient><linearGradient id="eecdm2EBi3G90-fill" x1="1761.9662" y1="1294.4666" x2="1678.998" y2="1491.1315" spreadMethod="pad" gradientUnits="userSpaceOnUse" gradientTransform="translate(0 0)"><stop id="eecdm2EBi3G90-fill-0" offset="0%" stop-color="#fe7062"/><stop id="eecdm2EBi3G90-fill-1" offset="100%" stop-color="#30c59b"/></linearGradient><linearGradient id="eecdm2EBi3G93-fill" x1="1671.4854" y1="1290.7119" x2="1938.3291" y2="1290.7119" spreadMethod="pad" gradientUnits="userSpaceOnUse" gradientTransform="translate(0 0)"><stop id="eecdm2EBi3G93-fill-0" offset="0%" stop-color="#dae3fe"/><stop id="eecdm2EBi3G93-fill-1" offset="100%" stop-color="#e9effd"/></linearGradient><linearGradient id="eecdm2EBi3G94-fill" x1="1795.1115" y1="1222.8762" x2="1656.8318" y2="1455.3912" spreadMethod="pad" gradientUnits="userSpaceOnUse" gradientTransform="translate(0 0)"><stop id="eecdm2EBi3G94-fill-0" offset="0%" stop-color="#fe7062"/><stop id="eecdm2EBi3G94-fill-1" offset="100%" stop-color="#30c59b"/></linearGradient><linearGradient id="eecdm2EBi3G97-fill" x1="1743.0231" y1="1108.2792" x2="1876.9622" y2="1108.2792" spreadMethod="pad" gradientUnits="userSpaceOnUse" gradientTransform="translate(0 0)"><stop id="eecdm2EBi3G97-fill-0" offset="0%" stop-color="#dae3fe"/><stop id="eecdm2EBi3G97-fill-1" offset="100%" stop-color="#e9effd"/></linearGradient><linearGradient id="eecdm2EBi3G98-fill" x1="1785.9633" y1="1108.1229" x2="1856.0121" y2="1108.1229" spreadMethod="pad" gradientUnits="userSpaceOnUse" gradientTransform="translate(0 0)"><stop id="eecdm2EBi3G98-fill-0" offset="0%" stop-color="#dae3fe"/><stop id="eecdm2EBi3G98-fill-1" offset="100%" stop-color="#e9effd"/></linearGradient><linearGradient id="eecdm2EBi3G101-fill" x1="3178.5397" y1="2323.9966" x2="3085.8732" y2="2239.3301" spreadMethod="pad" gradientUnits="userSpaceOnUse" gradientTransform="translate(0 0)"><stop id="eecdm2EBi3G101-fill-0" offset="0%" stop-color="#30c59b"/><stop id="eecdm2EBi3G101-fill-1" offset="100%" stop-color="#fbc638"/></linearGradient><linearGradient id="eecdm2EBi3G102-fill" x1="1869.5127" y1="1083.6423" x2="1869.5127" y2="1153.6422" spreadMethod="pad" gradientUnits="userSpaceOnUse" gradientTransform="translate(0 0)"><stop id="eecdm2EBi3G102-fill-0" offset="0%" stop-color="#30c59b"/><stop id="eecdm2EBi3G102-fill-1" offset="100%" stop-color="#fbc638"/></linearGradient><linearGradient id="eecdm2EBi3G104-fill" x1="1937.9769" y1="1476.9821" x2="2074.1693" y2="1625.1215" spreadMethod="pad" gradientUnits="userSpaceOnUse" gradientTransform="translate(0 0)"><stop id="eecdm2EBi3G104-fill-0" offset="0%" stop-color="#7b1fa2"/><stop id="eecdm2EBi3G104-fill-1" offset="100%" stop-color="#1a0f91"/></linearGradient><linearGradient id="eecdm2EBi3G105-fill" x1="1982.183" y1="1487.9845" x2="1970.0856" y2="1487.9845" spreadMethod="pad" gradientUnits="userSpaceOnUse" gradientTransform="translate(0 0)"><stop id="eecdm2EBi3G105-fill-0" offset="0%" stop-color="#30c59b"/><stop id="eecdm2EBi3G105-fill-1" offset="100%" stop-color="#fbc638"/></linearGradient><linearGradient id="eecdm2EBi3G106-fill" x1="1927.253" y1="1309.4523" x2="2043.14" y2="1466.5219" spreadMethod="pad" gradientUnits="userSpaceOnUse" gradientTransform="translate(0 0)"><stop id="eecdm2EBi3G106-fill-0" offset="0%" stop-color="#9232b1"/><stop id="eecdm2EBi3G106-fill-1" offset="100%" stop-color="#b562d1"/></linearGradient><linearGradient id="eecdm2EBi3G107-fill" x1="1968.5299" y1="1448.8938" x2="2104.7215" y2="1597.0322" spreadMethod="pad" gradientUnits="userSpaceOnUse" gradientTransform="translate(0 0)"><stop id="eecdm2EBi3G107-fill-0" offset="0%" stop-color="#7b1fa2"/><stop id="eecdm2EBi3G107-fill-1" offset="100%" stop-color="#1a0f91"/></linearGradient><linearGradient id="eecdm2EBi3G108-fill" x1="2025.7816" y1="1487.3643" x2="2015.3365" y2="1487.3643" spreadMethod="pad" gradientUnits="userSpaceOnUse" gradientTransform="translate(0 0)"><stop id="eecdm2EBi3G108-fill-0" offset="0%" stop-color="#30c59b"/><stop id="eecdm2EBi3G108-fill-1" offset="100%" stop-color="#fbc638"/></linearGradient><linearGradient id="eecdm2EBi3G109-fill" x1="1947.9068" y1="1294.2136" x2="2063.7938" y2="1451.2832" spreadMethod="pad" gradientUnits="userSpaceOnUse" gradientTransform="translate(0 0)"><stop id="eecdm2EBi3G109-fill-0" offset="0%" stop-color="#9232b1"/><stop id="eecdm2EBi3G109-fill-1" offset="100%" stop-color="#b562d1"/></linearGradient><linearGradient id="eecdm2EBi3G111-fill" x1="3872.5599" y1="704.6679" x2="4208.5566" y2="608.2245" spreadMethod="pad" gradientUnits="userSpaceOnUse" gradientTransform="translate(0 0)"><stop id="eecdm2EBi3G111-fill-0" offset="0%" stop-color="#fe7062"/><stop id="eecdm2EBi3G111-fill-1" offset="100%" stop-color="#30c59b"/></linearGradient><linearGradient id="eecdm2EBi3G112-fill" x1="3170.1408" y1="2333.1931" x2="3077.4743" y2="2248.5264" spreadMethod="pad" gradientUnits="userSpaceOnUse" gradientTransform="translate(0 0)"><stop id="eecdm2EBi3G112-fill-0" offset="0%" stop-color="#30c59b"/><stop id="eecdm2EBi3G112-fill-1" offset="100%" stop-color="#fbc638"/></linearGradient><linearGradient id="eecdm2EBi3G113-fill" x1="3869.6529" y1="694.5358" x2="4205.6501" y2="598.0923" spreadMethod="pad" gradientUnits="userSpaceOnUse" gradientTransform="translate(0 0)"><stop id="eecdm2EBi3G113-fill-0" offset="0%" stop-color="#fe7062"/><stop id="eecdm2EBi3G113-fill-1" offset="100%" stop-color="#30c59b"/></linearGradient><linearGradient id="eecdm2EBi3G114-fill" x1="1994.3636" y1="1145.1305" x2="1988.3636" y2="1223.7972" spreadMethod="pad" gradientUnits="userSpaceOnUse" gradientTransform="translate(0 0)"><stop id="eecdm2EBi3G114-fill-0" offset="0%" stop-color="#30c59b"/><stop id="eecdm2EBi3G114-fill-1" offset="100%" stop-color="#fbc638"/></linearGradient><linearGradient id="eecdm2EBi3G116-fill" x1="3341.422097" y1="-701.853261" x2="3312.496284" y2="-662.440629" spreadMethod="pad" gradientUnits="userSpaceOnUse" gradientTransform="translate(0 0)"><stop id="eecdm2EBi3G116-fill-0" offset="0%" stop-color="#30c59b"/><stop id="eecdm2EBi3G116-fill-1" offset="100%" stop-color="#fbc638"/></linearGradient><linearGradient id="eecdm2EBi3G117-fill" x1="2069.2273" y1="1016.9168" x2="2043.2273" y2="1057.9167" spreadMethod="pad" gradientUnits="userSpaceOnUse" gradientTransform="translate(0 0)"><stop id="eecdm2EBi3G117-fill-0" offset="0%" stop-color="#e1473d"/><stop id="eecdm2EBi3G117-fill-1" offset="100%" stop-color="#e9605a"/></linearGradient><linearGradient id="eecdm2EBi3G118-fill" x1="3351.530249" y1="-694.444558" x2="3322.604452" y2="-655.031644" spreadMethod="pad" gradientUnits="userSpaceOnUse" gradientTransform="translate(0 0)"><stop id="eecdm2EBi3G118-fill-0" offset="0%" stop-color="#30c59b"/><stop id="eecdm2EBi3G118-fill-1" offset="100%" stop-color="#fbc638"/></linearGradient><linearGradient id="eecdm2EBi3G119-fill" x1="2033.4754" y1="1403.674" x2="2058.6148" y2="1223.1272" spreadMethod="pad" gradientUnits="userSpaceOnUse" gradientTransform="translate(0 0)"><stop id="eecdm2EBi3G119-fill-0" offset="0%" stop-color="#30c59b"/><stop id="eecdm2EBi3G119-fill-1" offset="100%" stop-color="#fbc638"/></linearGradient><linearGradient id="eecdm2EBi3G120-fill" x1="2036.469" y1="1386.3062" x2="2056.5303" y2="1242.2295" spreadMethod="pad" gradientUnits="userSpaceOnUse" gradientTransform="translate(0 0)"><stop id="eecdm2EBi3G120-fill-0" offset="0%" stop-color="#30c59b"/><stop id="eecdm2EBi3G120-fill-1" offset="100%" stop-color="#fbc638"/></linearGradient><linearGradient id="eecdm2EBi3G123-fill" x1="620.5924" y1="1167.366" x2="332.5923" y2="1349.366" spreadMethod="pad" gradientUnits="userSpaceOnUse" gradientTransform="translate(0 0)"><stop id="eecdm2EBi3G123-fill-0" offset="0%" stop-color="#7b1fa2"/><stop id="eecdm2EBi3G123-fill-1" offset="100%" stop-color="#1a0f91"/></linearGradient><linearGradient id="eecdm2EBi3G125-fill" x1="800.35" y1="836.7361" x2="608.3502" y2="1218.736" spreadMethod="pad" gradientUnits="userSpaceOnUse" gradientTransform="translate(0 0)"><stop id="eecdm2EBi3G125-fill-0" offset="0%" stop-color="#7b1fa2"/><stop id="eecdm2EBi3G125-fill-1" offset="100%" stop-color="#1a0f91"/></linearGradient><linearGradient id="eecdm2EBi3G126-fill" x1="656.8761" y1="970.5468" x2="209.3917" y2="1388.0957" spreadMethod="pad" gradientUnits="userSpaceOnUse" gradientTransform="translate(0 0)"><stop id="eecdm2EBi3G126-fill-0" offset="0%" stop-color="#9232b1"/><stop id="eecdm2EBi3G126-fill-1" offset="100%" stop-color="#b562d1"/></linearGradient><linearGradient id="eecdm2EBi3G127-fill" x1="695.6296" y1="1012.0784" x2="248.1452" y2="1429.6272" spreadMethod="pad" gradientUnits="userSpaceOnUse" gradientTransform="translate(0 0)"><stop id="eecdm2EBi3G127-fill-0" offset="0%" stop-color="#9232b1"/><stop id="eecdm2EBi3G127-fill-1" offset="100%" stop-color="#b562d1"/></linearGradient><linearGradient id="eecdm2EBi3G128-fill" x1="691.6123" y1="1007.7676" x2="244.1245" y2="1425.3196" spreadMethod="pad" gradientUnits="userSpaceOnUse" gradientTransform="translate(0 0)"><stop id="eecdm2EBi3G128-fill-0" offset="0%" stop-color="#9232b1"/><stop id="eecdm2EBi3G128-fill-1" offset="100%" stop-color="#b562d1"/></linearGradient><linearGradient id="eecdm2EBi3G131-fill" x1="375.7682" y1="1421.7046" x2="628.7686" y2="1517.7048" spreadMethod="pad" gradientUnits="userSpaceOnUse" gradientTransform="translate(0 0)"><stop id="eecdm2EBi3G131-fill-0" offset="0%" stop-color="#30c59b"/><stop id="eecdm2EBi3G131-fill-1" offset="100%" stop-color="#fbc638"/></linearGradient><linearGradient id="eecdm2EBi3G132-fill" x1="356.086526" y1="1442.10136" x2="362.803374" y2="1491.374033" spreadMethod="pad" gradientUnits="userSpaceOnUse" gradientTransform="translate(0 0)"><stop id="eecdm2EBi3G132-fill-0" offset="0%" stop-color="#9232b1"/><stop id="eecdm2EBi3G132-fill-1" offset="100%" stop-color="#b562d1"/></linearGradient><linearGradient id="eecdm2EBi3G133-fill" x1="375.7682" y1="1421.7046" x2="628.7686" y2="1517.7048" spreadMethod="pad" gradientUnits="userSpaceOnUse" gradientTransform="translate(0 0)"><stop id="eecdm2EBi3G133-fill-0" offset="0%" stop-color="#30c59b"/><stop id="eecdm2EBi3G133-fill-1" offset="100%" stop-color="#fbc638"/></linearGradient><linearGradient id="eecdm2EBi3G134-fill" x1="502.5705" y1="1321.9991" x2="390.5702" y2="1427.9993" spreadMethod="pad" gradientUnits="userSpaceOnUse" gradientTransform="translate(0 0)"><stop id="eecdm2EBi3G134-fill-0" offset="0%" stop-color="#30c59b"/><stop id="eecdm2EBi3G134-fill-1" offset="100%" stop-color="#fbc638"/></linearGradient><linearGradient id="eecdm2EBi3G135-fill" x1="353.1579" y1="1236.7751" x2="382.0686" y2="1236.7751" spreadMethod="pad" gradientUnits="userSpaceOnUse" gradientTransform="translate(0 0)"><stop id="eecdm2EBi3G135-fill-0" offset="0%" stop-color="#30c59b"/><stop id="eecdm2EBi3G135-fill-1" offset="100%" stop-color="#fbc638"/></linearGradient><linearGradient id="eecdm2EBi3G136-fill" x1="376.7114" y1="1455.6989" x2="402.0097" y2="1498.5114" spreadMethod="pad" gradientUnits="userSpaceOnUse" gradientTransform="translate(0 0)"><stop id="eecdm2EBi3G136-fill-0" offset="0%" stop-color="#9232b1"/><stop id="eecdm2EBi3G136-fill-1" offset="100%" stop-color="#b562d1"/></linearGradient><linearGradient id="eecdm2EBi3G137-fill" x1="381.9343" y1="1350.6797" x2="316.2502" y2="1504.3334" spreadMethod="pad" gradientUnits="userSpaceOnUse" gradientTransform="translate(0 0)"><stop id="eecdm2EBi3G137-fill-0" offset="0%" stop-color="#fe7062"/><stop id="eecdm2EBi3G137-fill-1" offset="100%" stop-color="#30c59b"/></linearGradient><linearGradient id="eecdm2EBi3G138-fill" x1="384.7314" y1="1161.8408" x2="405.2646" y2="1161.8408" spreadMethod="pad" gradientUnits="userSpaceOnUse" gradientTransform="translate(0 0)"><stop id="eecdm2EBi3G138-fill-0" offset="0%" stop-color="#30c59b"/><stop id="eecdm2EBi3G138-fill-1" offset="100%" stop-color="#fbc638"/></linearGradient><linearGradient id="eecdm2EBi3G139-fill" x1="421.7252" y1="1184.0875" x2="312.9939" y2="1323.5781" spreadMethod="pad" gradientUnits="userSpaceOnUse" gradientTransform="translate(0 0)"><stop id="eecdm2EBi3G139-fill-0" offset="0%" stop-color="#fe7062"/><stop id="eecdm2EBi3G139-fill-1" offset="100%" stop-color="#30c59b"/></linearGradient><linearGradient id="eecdm2EBi3G140-fill" x1="412.8148" y1="1156.4211" x2="451.8148" y2="1223.4213" spreadMethod="pad" gradientUnits="userSpaceOnUse" gradientTransform="translate(0 0)"><stop id="eecdm2EBi3G140-fill-0" offset="0%" stop-color="#30c59b"/><stop id="eecdm2EBi3G140-fill-1" offset="100%" stop-color="#fbc638"/></linearGradient><linearGradient id="eecdm2EBi3G141-fill" x1="445.5575" y1="1137.3617" x2="484.5575" y2="1204.3619" spreadMethod="pad" gradientUnits="userSpaceOnUse" gradientTransform="translate(0 0)"><stop id="eecdm2EBi3G141-fill-0" offset="0%" stop-color="#30c59b"/><stop id="eecdm2EBi3G141-fill-1" offset="100%" stop-color="#fbc638"/></linearGradient><linearGradient id="eecdm2EBi3G142-fill" x1="418.9307" y1="1161.8326" x2="379.0293" y2="1103.4863" spreadMethod="pad" gradientUnits="userSpaceOnUse" gradientTransform="translate(0 0)"><stop id="eecdm2EBi3G142-fill-0" offset="0%" stop-color="#30c59b"/><stop id="eecdm2EBi3G142-fill-1" offset="100%" stop-color="#fbc638"/></linearGradient><linearGradient id="eecdm2EBi3G143-fill" x1="288.1534" y1="1177.894" x2="418.1626" y2="1177.894" spreadMethod="pad" gradientUnits="userSpaceOnUse" gradientTransform="translate(0 0)"><stop id="eecdm2EBi3G143-fill-0" offset="0%" stop-color="#7b1fa2"/><stop id="eecdm2EBi3G143-fill-1" offset="100%" stop-color="#1a0f91"/></linearGradient><linearGradient id="eecdm2EBi3G145-fill" x1="933.7601" y1="605.5153" x2="846.6583" y2="797.3468" spreadMethod="pad" gradientUnits="userSpaceOnUse" gradientTransform="translate(0 0)"><stop id="eecdm2EBi3G145-fill-0" offset="0%" stop-color="#9232b1"/><stop id="eecdm2EBi3G145-fill-1" offset="100%" stop-color="#b562d1"/></linearGradient><linearGradient id="eecdm2EBi3G146-fill" x1="921.8741" y1="388.5745" x2="883.8739" y2="564.5746" spreadMethod="pad" gradientUnits="userSpaceOnUse" gradientTransform="translate(0 0)"><stop id="eecdm2EBi3G146-fill-0" offset="0%" stop-color="#7b1fa2"/><stop id="eecdm2EBi3G146-fill-1" offset="100%" stop-color="#1a0f91"/></linearGradient><linearGradient id="eecdm2EBi3G147-fill" x1="911.1745" y1="595.2603" x2="824.0729" y2="787.0912" spreadMethod="pad" gradientUnits="userSpaceOnUse" gradientTransform="translate(0 0)"><stop id="eecdm2EBi3G147-fill-0" offset="0%" stop-color="#9232b1"/><stop id="eecdm2EBi3G147-fill-1" offset="100%" stop-color="#b562d1"/></linearGradient><linearGradient id="eecdm2EBi3G149-fill" x1="1705.6112" y1="313.4746" x2="1699.6112" y2="485.4744" spreadMethod="pad" gradientUnits="userSpaceOnUse" gradientTransform="translate(0 0)"><stop id="eecdm2EBi3G149-fill-0" offset="0%" stop-color="#7b1fa2"/><stop id="eecdm2EBi3G149-fill-1" offset="100%" stop-color="#1a0f91"/></linearGradient><linearGradient id="eecdm2EBi3G150-fill" x1="1658.3105" y1="592.4737" x2="1816.2532" y2="911.3105" spreadMethod="pad" gradientUnits="userSpaceOnUse" gradientTransform="translate(0 0)"><stop id="eecdm2EBi3G150-fill-0" offset="0%" stop-color="#9232b1"/><stop id="eecdm2EBi3G150-fill-1" offset="100%" stop-color="#b562d1"/></linearGradient><linearGradient id="eecdm2EBi3G151-fill" x1="1709.9069" y1="288.9999" x2="1709.9069" y2="477.0001" spreadMethod="pad" gradientUnits="userSpaceOnUse" gradientTransform="translate(0 0)"><stop id="eecdm2EBi3G151-fill-0" offset="0%" stop-color="#7b1fa2"/><stop id="eecdm2EBi3G151-fill-1" offset="100%" stop-color="#1a0f91"/></linearGradient></defs><g><rect width="2475" height="1650" rx="0" ry="0" fill="#fff"/></g><g><g><g id="eecdm2EBi3G6_tr" transform="translate(1251.564087,782.604996) rotate(0)"><g id="eecdm2EBi3G6_ts" transform="scale(1,1)"><path d="M2337.36,729.294c-59.71-82.881-186.261-127.288-189.547-251.5-2.136-80.712,34.712-124.456-24.253-193.353-142.538-166.54-362.195-186.058-549.75-116.486-187.491,69.549-337.325,208.961-545.777,200.559-113.521-4.576-218.99-58.137-331.36-68.188-34.617-3.096-66.962-.441-97.21,7.262C486.075,336.465,385.96,444.899,348.26,565.366c-30.56,97.655,8.485,194.059-39.5,289.687-51.146,101.928-151.868,172.725-177.245,290.401-30.458,141.236,85.91,264.059,210.911,267.9c79.565,2.445,227.047-10.192,294.64-58.999c82.304-59.428,163.195-63.337,259.143-61.061c182.598,4.333,365.189,45.183,545.432,74.269c154.446,24.922,306.671,61.828,463.198,66.515c114.952,3.441,212.505,4.989,274.708-119.14c74.345-148.362,283.052-411.802,157.813-585.644Z" transform="translate(-1251.564087,-782.604996)" fill="url(#eecdm2EBi3G6-fill)"/></g></g><g id="eecdm2EBi3G7_tr" transform="translate(1970.867798,992.980713) rotate(-1.55078)"><g transform="translate(-1970.867798,-992.980713)"><path d="M2266.833,752.081c-18.709,78.479-146.238,530.734-592.123,487.295c0,0,7.312-319.349,583.506-495.418c5.04-1.541,9.839,2.996,8.617,8.123Z" fill="#f6d6ff"/><path d="M2205.089,804.352c0,0-5.527,8.331-15.638,22.548-5.08,7.094-11.257,15.703-18.524,25.443-7.227,9.771-15.539,20.674-24.704,32.492-9.228,11.77-19.265,24.493-30.186,37.702-10.843,13.275-22.579,27.023-34.819,41.161-12.365,14.028-25.226,28.457-38.695,42.752-3.361,3.579-6.736,7.173-10.121,10.777-3.443,3.549-6.895,7.109-10.355,10.676-6.867,7.185-13.992,14.173-21.058,21.22-3.511,3.546-7.11,7.002-10.719,10.443-3.599,3.45-7.194,6.896-10.783,10.336-7.248,6.805-14.572,13.474-21.809,20.124-7.399,6.468-14.639,13.003-21.977,19.248-3.69,3.098-7.358,6.177-11,9.235-3.64,3.06-7.238,6.117-10.933,8.997-14.573,11.769-28.97,22.771-42.937,32.781-3.512,2.475-6.975,4.918-10.387,7.323-3.407,2.413-6.757,4.797-10.17,6.971-6.781,4.411-13.257,8.789-19.612,12.781-6.422,3.887-12.578,7.613-18.432,11.156-5.896,3.474-11.653,6.494-16.975,9.48-2.674,1.472-5.261,2.898-7.759,4.274-2.556,1.269-5.02,2.492-7.387,3.666-4.736,2.35-9.086,4.508-13.015,6.457-1.947,1.011-3.86,1.823-5.651,2.604-1.791.784-3.469,1.519-5.031,2.202-3.124,1.368-5.781,2.53-7.936,3.473-4.309,1.885-6.608,2.89-6.608,2.89-1.848.809-4.001-.034-4.809-1.882s.034-4.001,1.882-4.809l.021-.01.172-.073c0,0,2.271-.977,6.528-2.807c2.129-.915,4.755-2.044,7.843-3.371c1.544-.664,3.203-1.376,4.973-2.137c1.771-.758,3.662-1.544,5.591-2.531c3.891-1.899,8.199-4.001,12.89-6.29c2.346-1.144,4.787-2.335,7.319-3.57c2.478-1.345,5.045-2.737,7.698-4.176c5.282-2.919,10.993-5.865,16.851-9.265c5.819-3.47,11.938-7.118,18.323-10.925c6.322-3.913,12.771-8.213,19.522-12.54c3.397-2.132,6.737-4.475,10.132-6.847c3.401-2.365,6.854-4.765,10.355-7.199c13.927-9.843,28.302-20.678,42.866-32.282c3.691-2.837,7.289-5.855,10.929-8.874c3.642-3.016,7.31-6.055,11.001-9.111c7.34-6.164,14.588-12.62,21.995-19.008c7.247-6.571,14.582-13.163,21.845-19.892c3.596-3.402,7.2-6.811,10.807-10.224c3.617-3.402,7.224-6.823,10.746-10.331c7.086-6.974,14.231-13.891,21.123-21.007c3.472-3.532,6.937-7.057,10.391-10.572c3.398-3.571,6.786-7.131,10.16-10.677c13.521-14.163,26.442-28.467,38.868-42.377c12.301-14.021,24.101-27.66,35.006-40.834c10.984-13.107,21.083-25.738,30.37-37.422c9.224-11.733,17.592-22.56,24.868-32.262c7.316-9.673,13.536-18.222,18.651-25.266c10.189-14.128,15.731-22.365,15.731-22.365.477-.708,1.438-.896,2.148-.42.709.474.894,1.435.425,2.144Z" fill="#f1c5ff"/></g></g><g id="eecdm2EBi3G10_tr" transform="translate(1926.527039,670.637482) rotate(10)"><g transform="translate(-1926.527039,-670.637482)"><path d="M2175.249,322.831c3.303,90.275,1.072,616.411-493.021,703.001c0,0-87.697-346.752,481.292-709.186c4.977-3.172,11.513.287,11.729,6.185Z" transform="matrix(.996634 0.081986-.081986 0.996634 61.468181-155.689645)" fill="#e493ff"/><path d="M2123.971,397.588c0,0-13.662,43.602-39.536,106.962-12.931,31.671-28.879,68.284-47.544,106.774-18.616,38.509-40.019,78.862-63.389,118.084-23.408,39.192-48.856,77.21-75.029,111.143-26.153,33.946-53.039,63.747-77.914,87.43-12.439,11.841-24.349,22.166-35.177,30.986-2.732,2.176-5.377,4.282-7.929,6.314-2.56,2.024-5.11,3.87-7.516,5.701-4.791,3.691-9.376,6.835-13.467,9.743-1.025.724-2.022,1.429-2.991,2.114-.99.655-1.951,1.292-2.883,1.909-1.865,1.235-3.612,2.392-5.238,3.468-3.228,2.191-6.07,3.906-8.361,5.318-4.581,2.827-7.024,4.334-7.024,4.334-1.56.963-3.605.478-4.568-1.082s-.478-3.605,1.082-4.568l.015-.009.093-.057c0,0,2.413-1.472,6.936-4.231c2.262-1.379,5.07-3.052,8.262-5.195c1.608-1.052,3.336-2.184,5.179-3.39.922-.603,1.873-1.226,2.852-1.867.959-.67,1.946-1.36,2.961-2.069c4.049-2.848,8.588-5.922,13.337-9.543c2.385-1.795,4.912-3.603,7.45-5.588c2.532-1.995,5.156-4.062,7.866-6.198c10.747-8.66,22.581-18.81,34.963-30.473c24.76-23.327,51.603-52.761,77.782-86.373c26.2-33.6,51.737-71.318,75.268-110.25c23.494-38.962,45.05-79.092,63.824-117.414c18.824-38.304,34.933-74.763,48.006-106.308c13.07-31.551,23.089-58.197,29.825-76.94c6.733-18.747,10.184-29.576,10.184-29.576.236-.741,1.027-1.149,1.767-.913.74.237,1.15,1.024.914,1.764Z" fill="#f1c5ff"/></g></g><g id="eecdm2EBi3G13_tr" transform="translate(674.93396,749.636932) rotate(10)"><g transform="scale(1,0.96612) translate(-674.93396,-749.636932)"><path d="M1029.387,1296.996c0,0-220.117-84.509-287.113-359.586-65.118-267.368-93.716-646.289-405.835-734.637-10.512-2.976-19.535,8.036-14.544,17.755c29.509,57.459,100.214,207.946,124.113,372.755c30.507,210.377,209.278,700.608,583.379,703.713Z" fill="#e493ff"/><path d="M410.766,293.767c0,0,.228.129.678.381.423.232,1.296.777,2.313,1.402c1.818,1.183,4.477,2.913,7.746,5.322c6.61,4.756,15.814,12.21,26.644,22.597c5.353,5.246,11.216,11.126,17.176,17.898c3.061,3.319,6.017,6.962,9.179,10.664c1.52,1.899,3.068,3.833,4.642,5.799c1.577,1.965,3.173,3.971,4.694,6.084c1.548,2.092,3.121,4.218,4.718,6.377c1.533,2.203,3.089,4.439,4.668,6.708c3.217,4.5,6.175,9.357,9.373,14.238c6.066,9.959,12.31,20.531,17.988,31.99c3,5.651,5.636,11.621,8.484,17.629c1.413,3.01,2.649,6.129,4,9.233c1.295,3.125,2.739,6.226,3.921,9.459c2.471,6.426,5.034,12.944,7.224,19.703c1.124,3.37,2.33,6.742,3.409,10.18c1.035,3.451,2.077,6.927,3.126,10.427c8.323,28.023,14.285,58.331,17.903,89.902.444,3.948.89,7.913,1.338,11.892.308,3.99.618,7.997.929,12.017.301,3.987.602,7.987.905,12.001.274,4.008.548,8.029.824,12.063c1.108,16.123,2.755,32.118,4.711,48.455c3.961,32.552,9.723,65.426,17.032,97.961c7.303,32.537,16.166,64.736,26.372,95.954c10.233,31.21,21.691,61.481,34.205,90.171c12.51,28.689,26.063,55.793,40.204,80.771c14.122,24.992,28.89,47.811,43.497,68.173c14.595,20.377,29.129,38.218,42.669,53.455c6.985,7.414,13.317,14.568,19.686,20.677c3.139,3.099,6.103,6.124,9.022,8.924c2.978,2.737,5.818,5.348,8.514,7.826c5.313,5.05,10.408,9.155,14.736,12.852c2.182,1.827,4.167,3.562,6.047,5.073c1.909,1.477,3.643,2.818,5.195,4.018c6.214,4.807,9.529,7.37,9.529,7.37s-3.378-2.48-9.712-7.129c-1.584-1.163-3.354-2.462-5.301-3.892-1.92-1.465-3.949-3.15-6.179-4.923-4.425-3.591-9.636-7.578-15.085-12.502-2.765-2.416-5.678-4.961-8.733-7.63-2.997-2.733-6.044-5.69-9.272-8.72-6.547-5.972-13.076-12.983-20.281-20.257-13.979-14.953-29.038-32.516-44.236-52.644-30.409-40.237-60.966-90.946-87.277-148.316-13.181-28.666-25.372-58.961-36.101-90.322-10.763-31.35-20.189-63.722-28.051-96.484-7.868-32.761-14.185-65.914-18.681-98.811-2.214-16.391-4.156-32.944-5.501-49.068-.675-8.049-1.346-16.049-2.012-23.991-.334-3.932-.667-7.85-.999-11.753-.469-3.887-.936-7.758-1.401-11.614-3.779-30.828-9.823-60.307-18.122-87.454-8.261-27.149-18.186-52.142-29.425-74.145-5.47-11.082-11.487-21.282-17.321-30.894-3.079-4.703-5.92-9.395-9.014-13.726-1.517-2.187-3.012-4.342-4.485-6.465-1.534-2.079-3.045-4.125-4.531-6.139-11.917-16.104-23.694-29.042-33.874-39.119-10.255-10.008-18.922-17.184-24.969-21.731-3.016-2.307-5.385-3.9-6.949-4.961-.709-.443-1.121-.746-1.598-1.018-.445-.26-.671-.393-.671-.393l-.111-.066c-3.154-1.848-4.213-5.902-2.365-9.055c1.827-3.12,5.817-4.187,8.956-2.424Z" fill="#f1c5ff"/></g></g><g id="eecdm2EBi3G16_tr" transform="translate(523.161606,879.796906) rotate(-1.55078)"><g transform="scale(1.074032,0.607669) translate(-523.161606,-879.796906)"><g opacity="0.74"><path d="M210.68,537.314c-4.064-5.238,1.093-12.612,7.438-10.688c64.435,19.528,231.357,90.895,312.042,320.094c101.231,287.564,206.721,358.553,306.928,384.1c0,0-110.629,19.428-221.105-50.905C344.736,1007.23,282.948,630.457,210.68,537.314Z" fill="#f6d6ff"/><path d="M288.59,602.963c0,0,.529.408,1.555,1.197c1.013.825,2.582,2.021,4.466,3.666.956.816,2.023,1.727,3.199,2.731c1.142,1.035,2.388,2.165,3.735,3.387c2.733,2.409,5.707,5.338,9.035,8.626c3.399,3.226,6.864,7.063,10.782,11.12c3.903,4.071,7.837,8.718,12.203,13.555c4.257,4.925,8.609,10.311,13.3,15.916c4.445,5.794,9.118,11.885,13.995,18.242c4.64,6.53,9.473,13.333,14.476,20.372c4.759,7.208,9.678,14.659,14.736,22.318c4.789,7.831,9.708,15.875,14.736,24.097c4.815,8.345,9.521,16.993,14.424,25.725c9.37,17.685,18.897,36.066,27.625,55.187c2.235,4.757,4.479,9.532,6.73,14.323c2.087,4.86,4.18,9.735,6.277,14.62c4.172,9.714,8.361,19.467,12.55,29.219c2.098,4.877,4.195,9.754,6.291,14.626c2.141,4.833,4.074,9.839,6.432,14.465c4.581,9.388,8.97,18.799,13.627,28.026c4.883,9.143,9.726,18.214,14.512,27.176c5.106,8.786,10.151,17.464,15.112,26.001c5.232,8.375,10.376,16.61,15.412,24.672c5.259,7.918,10.404,15.666,15.412,23.208c5.225,7.394,10.308,14.586,15.225,21.544c5.104,6.822,10.035,13.412,14.769,19.74c4.885,6.21,9.566,12.163,14.018,17.823c4.563,5.57,8.892,10.854,12.959,15.82c4.175,4.872,8.082,9.432,11.695,13.649c3.697,4.138,7.092,7.939,10.159,11.373c3.121,3.375,5.909,6.388,8.333,9.01c2.459,2.578,4.55,4.769,6.246,6.547c1.714,1.737,3.028,3.069,3.913,3.967.867.856,1.315,1.297,1.315,1.297l.103.102c2.602,2.566,2.632,6.756.065,9.359-2.533,2.568-6.653,2.625-9.262.158c0,0-.507-.479-1.49-1.41-.939-.914-2.332-2.272-4.15-4.041-1.777-1.789-3.968-3.995-6.544-6.588-2.516-2.638-5.408-5.671-8.648-9.067-3.162-3.46-6.663-7.291-10.475-11.462-3.722-4.245-7.747-8.837-12.048-13.741-4.19-4.998-8.648-10.316-13.348-15.922-4.576-5.706-9.367-11.724-14.307-18.048-4.816-6.418-9.833-13.104-15.025-20.024-5.003-7.059-10.175-14.356-15.492-21.857-5.098-7.654-10.335-15.516-15.688-23.552-5.077-8.216-10.264-16.609-15.538-25.144-4.964-8.721-10.01-17.588-15.119-26.564-4.783-9.156-9.623-18.421-14.503-27.762-4.676-9.473-9.111-19.205-13.708-28.872-2.394-4.831-4.234-9.745-6.345-14.628-2.051-4.891-4.104-9.787-6.158-14.683l-3.127-7.48-2.979-7.332c-1.985-4.887-3.969-9.77-5.948-14.644-1.98-4.874-3.955-9.739-5.925-14.589-2.132-4.779-4.258-9.543-6.376-14.288-8.261-19.087-17.321-37.433-26.241-55.106-4.658-8.733-9.238-17.32-13.721-25.725-4.719-8.276-9.337-16.373-13.831-24.253-4.765-7.72-9.401-15.23-13.884-22.494-4.729-7.107-9.298-13.973-13.685-20.564-4.619-6.43-9.046-12.591-13.256-18.451-4.398-5.714-8.482-11.216-12.485-16.25-4.108-4.941-7.813-9.703-11.495-13.871-3.696-4.154-6.971-8.097-10.185-11.404-3.151-3.371-5.966-6.384-8.52-8.891-1.265-1.269-2.435-2.442-3.507-3.518-1.102-1.04-2.102-1.984-2.998-2.83-1.783-1.723-3.197-2.911-4.135-3.761-.973-.829-1.475-1.257-1.475-1.257l-.037-.031c-.746-.635-.835-1.756-.199-2.502.618-.724,1.691-.829,2.435-.258Z" fill="#f1c5ff"/></g></g></g><g id="eecdm2EBi3G20_ts" transform="translate(1290.493835,822.748718) scale(1,1)"><g transform="translate(-1290.493835,-822.748718)"><g><polygon points="1125.362,1040.814 1093.255,1328.773 1465.764,1328.773 1417.244,1040.814" fill="url(#eecdm2EBi3G22-fill)"/><path d="M1546.002,1387.689h-545.193c-14.811,0-25.934-10.544-23.07-21.87l6.996-27.667c2.104-8.321,11.257-14.429,22.129-14.768l525.586-16.401c11.359-.354,21.416,5.675,23.891,14.322l12.611,44.067c3.276,11.45-7.899,22.317-22.95,22.317Z" fill="url(#eecdm2EBi3G23-fill)"/><path d="M658.053,331.344v659.502c0,54.253,43.233,98.619,97.468,100.017c240.882,6.212,861.304,21.273,1090.607,17.893c39.411-.581,71.338-32.119,72.475-71.519c4.422-153.211,11.603-521.633-14.972-692.677-5.597-36.02-36-62.955-72.434-64.12-201.829-6.457-872.855-26.959-1102.051-21.811-39.529.887-71.093,33.176-71.093,72.715Z" fill="url(#eecdm2EBi3G24-fill)"/><path d="M699.435,328.134v626.572c0,31.676,25.427,57.486,57.099,57.96l1056.605,15.797c31.401.469,57.14-24.794,57.257-56.198l2.139-620.974c.084-22.455-17.806-40.853-40.254-41.399L745.225,283.444c-25.107-.611-45.79,19.575-45.79,44.69Z" fill="url(#eecdm2EBi3G25-fill)"/><path d="M1880.024,1054.387c-.016,0-.03,0-.043,0l-1180.587-23.9c-1.113-.023-1.998-.945-1.977-2.058.024-1.115.962-1.992,2.06-1.978l1180.586,23.9c1.114.023,1.999.945,1.977,2.058-.024,1.101-.922,1.978-2.016,1.978Z" fill="#e493ff"/><g><path d="M1256.159,1083.575c-9.16,0-16.614-7.453-16.614-16.613s7.453-16.612,16.614-16.612s16.612,7.452,16.612,16.612-7.452,16.613-16.612,16.613Zm0-29.188c-6.935,0-12.578,5.641-12.578,12.576s5.642,12.577,12.578,12.577c6.933,0,12.576-5.641,12.576-12.577c0-6.935-5.643-12.576-12.576-12.576Z" fill="#e493ff"/></g><path d="M1294.298,1331.121c-1.102,0-2.002-.884-2.018-1.989-.016-1.115.875-2.031,1.989-2.048l22.522-.33c1.096-.017,2.032.874,2.048,1.989s-.875,2.031-1.989,2.048l-22.522.33c-.01,0-.02,0-.03,0Z" fill="url(#eecdm2EBi3G29-fill)"/><path d="M997.924,1372.677c-.104,0-.213-.008-.319-.026-1.102-.175-1.851-1.21-1.675-2.311l3.212-20.123c1.744-10.93,11.044-18.98,22.11-19.141l238.881-3.493c1.066-.067,2.032.874,2.047,1.989.016,1.114-.875,2.031-1.989,2.047l-238.88,3.493c-9.101.133-16.75,6.753-18.184,15.741l-3.212,20.123c-.158.993-1.016,1.701-1.991,1.701Z" fill="url(#eecdm2EBi3G30-fill)"/></g><g><g><path d="M1602.232,397.564c-12.193,0-22.113-9.92-22.113-22.113s9.92-22.113,22.113-22.113s22.113,9.92,22.113,22.113-9.92,22.113-22.113,22.113Zm0-40.29c-10.023,0-18.177,8.154-18.177,18.176c0,10.023,8.154,18.177,18.177,18.177c10.022,0,18.176-8.154,18.176-18.177c0-10.022-8.154-18.176-18.176-18.176Z" opacity="0.48" fill="#fff"/><path d="M1680.69,397.564c-12.193,0-22.113-9.92-22.113-22.113s9.92-22.113,22.113-22.113s22.113,9.92,22.113,22.113-9.92,22.113-22.113,22.113Zm0-40.29c-10.022,0-18.176,8.154-18.176,18.176c0,10.023,8.154,18.177,18.176,18.177c10.023,0,18.177-8.154,18.177-18.177c0-10.022-8.154-18.176-18.177-18.176Z" opacity="0.48" fill="#fff"/><path d="M1759.149,397.564c-12.193,0-22.113-9.92-22.113-22.113s9.92-22.113,22.113-22.113s22.113,9.92,22.113,22.113c-.001,12.193-9.921,22.113-22.113,22.113Zm0-40.29c-10.022,0-18.176,8.154-18.176,18.176c0,10.023,8.154,18.177,18.176,18.177s18.176-8.154,18.176-18.177c0-10.022-8.154-18.176-18.176-18.176Z" opacity="0.48" fill="#fff"/></g><path d="M1392.829,893.457l-610.947,4.122c-17.521.118-31.604-15.964-31.01-35.414l11.672-382.3c.532-17.417,13.441-31.218,29.131-31.145l594.806,2.786c16.041.075,28.976,14.578,28.893,32.393l-1.81,386.509c-.059,12.691-9.308,22.972-20.735,23.049Z" fill="url(#eecdm2EBi3G36-fill)"/><path d="M1406.324,954.71h-646.404c-4.51,0-8.166-4.233-8.166-9.454v-17.274c0-5.27,3.722-9.523,8.274-9.453l646.405,9.919c4.467.069,8.057,4.281,8.057,9.453v7.355c0,5.222-3.656,9.454-8.166,9.454Z" fill="url(#eecdm2EBi3G37-fill)"/><path d="M1806.825,994.949c-.193,0-.385-.002-.578-.005L755.365,975.998c-20.747-.374-37.349-17.557-37.01-38.305l9.547-583.479c.187-11.431,4.831-22.086,13.077-30.004s19.074-12.126,30.51-11.848l1029.909,24.999c20.463.497,36.491,16.919,36.491,37.388v589.117c0,8.408-3.304,16.284-9.303,22.176-5.86,5.757-13.569,8.907-21.761,8.907ZM770.431,316.286c-10.016,0-19.474,3.801-26.725,10.764-7.484,7.185-11.698,16.855-11.868,27.229l-9.546,583.479c-.304,18.581,14.564,33.97,33.145,34.304l1050.882,18.946c7.346.131,14.271-2.628,19.511-7.774c5.239-5.146,8.125-12.024,8.125-19.367v-589.118c0-18.314-14.342-33.008-32.65-33.452L771.394,316.298c-.321-.008-.642-.012-.963-.012Z" opacity="0.48" fill="#fff"/><path d="M1779.285,633.659h-.028l-300.235-5.799c-13.365-.258-24.239-11.344-24.239-24.711v-129.116c0-17.989,14.635-32.623,32.623-32.623h291.879c17.989,0,32.623,14.635,32.623,32.623v127.003c0,17.989-14.635,32.623-32.623,32.623ZM1487.406,444.362c-16.36,0-29.671,13.31-29.671,29.671v129.116c0,11.771,9.574,21.532,21.343,21.759l300.22,5.799c16.355-.007,29.658-13.314,29.658-29.671v-127.003c0-16.361-13.311-29.671-29.671-29.671h-291.879Z" opacity="0.48" fill="#fff"/><path d="M1798.937,955.941h-331.183c-6.348,0-11.495-5.146-11.495-11.495v-15.654c0-6.441,5.291-11.625,11.73-11.492l331.183,6.793c6.255.128,11.259,5.236,11.259,11.492v8.861c.001,6.349-5.145,11.495-11.494,11.495Z" fill="url(#eecdm2EBi3G40-fill)"/><path d="M1793.498,898.991c-.092,0-.184-.001-.276-.002l-321.184-4.671c-10.008-.146-18.15-8.407-18.15-18.416v-92.416c0-4.973,1.951-9.633,5.494-13.122c3.542-3.489,8.217-5.374,13.204-5.294l321.184,4.89c10.001.152,18.137,8.413,18.137,18.416v92.198c0,4.97-1.949,9.629-5.49,13.118-3.473,3.423-8.052,5.299-12.919,5.299Zm-.233-2.954c4.14.046,8.108-1.519,11.081-4.449s4.61-6.842,4.61-11.015v-92.198c0-8.399-6.832-15.336-15.23-15.464l-321.184-4.89c-4.176-.059-8.113,1.515-11.088,4.445s-4.614,6.843-4.614,11.019v92.416c0,8.405,6.837,15.342,15.241,15.464l321.184,4.672Z" opacity="0.48" fill="#fff"/><path d="M1788.322,749.107c-.094,0-.187-.001-.282-.002l-310.276-4.814c-9.565-.148-17.347-8.051-17.347-17.618v-71.912c0-4.781,1.883-9.255,5.301-12.598s7.922-5.126,12.713-5.018l310.276,6.945c9.499.213,17.226,8.115,17.226,17.616v69.781c0,4.758-1.867,9.217-5.258,12.555-3.322,3.273-7.7,5.065-12.353,5.065ZM1478.028,640.093c-3.853,0-7.48,1.477-10.245,4.181-2.846,2.782-4.413,6.507-4.413,10.487v71.912c0,7.963,6.478,14.542,14.44,14.666l310.276,4.814c3.925.059,7.696-1.435,10.519-4.214c2.822-2.779,4.377-6.491,4.377-10.452v-69.781c0-7.909-6.433-14.487-14.34-14.664l-310.276-6.945c-.113-.002-.226-.004-.338-.004Z" opacity="0.48" fill="#fff"/><path d="M775.811,339.568l751.011,20.529c8.184.224,14.702,6.922,14.702,15.109v38.545c0,8.391-6.835,15.176-15.226,15.114l-757.752-5.593c-8.304-.061-15.003-6.81-15.003-15.114v-46.923c0-12.202,10.069-22.001,22.268-21.667Z" fill="url(#eecdm2EBi3G43-fill)"/><path d="M1516.948,414.598c-.04,0-.079,0-.119,0L779.11,411.44c-9.015-.039-16.076-4.436-16.076-10.011v-30.305c0-1.929.853-3.789,2.468-5.379c2.993-2.947,8.408-4.721,14.149-4.629l737.718,11.697c8.841.14,15.766,4.536,15.766,10.008v21.767c0,1.911-.839,3.756-2.425,5.336-2.944,2.929-8.082,4.674-13.762,4.674Zm-737.73-50.535c-4.823,0-9.258,1.435-11.645,3.785-1.053,1.036-1.587,2.138-1.587,3.275v30.305c0,3.796,6.016,7.029,13.137,7.059l737.719,3.158c4.88.029,9.401-1.441,11.785-3.815c1.033-1.028,1.557-2.12,1.557-3.244v-21.767c0-3.714-5.889-6.946-12.861-7.056L779.605,364.066c-.13-.002-.259-.003-.387-.003Z" opacity="0.48" fill="#fff"/></g><g id="eecdm2EBi3G45_tr" transform="translate(750.736422,474.018725) rotate(-4.722612)"><g transform="translate(-745.014808,-469.555448)"><path d="M798.321,404.022l-54.54,55.523c-2.287,2.329-2.106,6.112.393,8.212l.41.344c2.212,1.858,5.512,1.56,7.356-.663l49.94-60.234-3.559-3.182Z" fill="url(#eecdm2EBi3G46-fill)"/><path d="M854.346,359.543c8.433,17.671.681,38.957-17.314,47.545s-39.419,1.225-47.853-16.445c-8.433-17.671-.681-38.957,17.314-47.545c17.996-8.588,39.42-1.226,47.853,16.445Z" opacity="0.3" fill="#fff"/><path d="M804.772,339.491c-20.023,9.556-28.649,33.242-19.265,52.905c9.384,19.662,33.223,27.855,53.247,18.299s28.649-33.242,19.265-52.905c-9.384-19.662-33.223-27.855-53.247-18.299Zm31.486,65.974c-17.082,8.153-37.42,1.163-45.425-15.611s-.647-36.981,16.435-45.133c17.082-8.153,37.42-1.163,45.425,15.611c8.006,16.774.647,36.981-16.435,45.133Z" fill="url(#eecdm2EBi3G48-fill)"/></g></g></g></g><g id="eecdm2EBi3G49_to" transform="translate(1292.279053,585.231506)"><g transform="translate(-1290.486825,-585.2315)"><path d="M1487.011,665.254h-161.335c-38.431,0-69.697-31.266-69.697-69.697v-20.651c0-38.431,31.266-69.697,69.697-69.697h161.335c38.431,0,69.697,31.266,69.697,69.697v20.651c0,38.431-31.266,69.697-69.697,69.697ZM1325.676,531.023c-24.197,0-43.883,19.686-43.883,43.883v20.651c0,24.197,19.686,43.883,43.883,43.883h161.335c24.197,0,43.883-19.686,43.883-43.883v-20.651c0-24.197-19.686-43.883-43.883-43.883h-161.335Z" fill="url(#eecdm2EBi3G50-fill)"/><path d="M1258.883,665.254h-161.336c-38.431,0-69.697-31.266-69.697-69.697v-20.651c0-38.431,31.266-69.697,69.697-69.697h161.336c38.431,0,69.697,31.266,69.697,69.697v20.651c0,38.431-31.266,69.697-69.697,69.697Zm11.482-132.708c-3.661-.993-7.511-1.524-11.482-1.524h-161.336c-24.197,0-43.883,19.686-43.883,43.883v20.651c0,24.197,19.686,43.883,43.883,43.883h161.336c24.197,0,43.883-19.686,43.883-43.883v-20.651c0-20.225-13.755-37.299-32.401-42.359Z" fill="url(#eecdm2EBi3G51-fill)"/><path d="M1287.325,553.61c7.504-13.459,21.878-22.587,38.351-22.587h161.335c16.473,0,30.847,9.128,38.351,22.587h28.014c-9.021-28.047-35.359-48.401-66.365-48.401h-161.335c-31.006,0-57.344,20.354-66.365,48.401h28.014Z" fill="url(#eecdm2EBi3G52-fill)"/></g></g><g id="eecdm2EBi3G53_ts" transform="translate(753.68454,1171.40567) scale(1,1)"><g transform="translate(-753.68454,-1171.40567)"><g><path d="M1162.814,1417.811c0,8.905-6.698,16.191-14.883,16.191h-804.807c-8.185,0-14.883-7.286-14.883-16.191l-6.697-503.65c0-8.905,9.635-26.291,27.292-24.984l786.546-22.163c10.27-.289,20.201,4.015,27.474,11.91s11.252,18.688,11.01,29.862l-11.052,509.025Z" fill="url(#eecdm2EBi3G55-fill)"/><path d="M1148.12,1402.277c0,8.433-6.336,15.333-14.08,15.333h-771.508c-7.744,0-14.08-6.9-14.08-15.333l-6.319-457.218c.744-27.514,22.896-37.403,36.324-36.819c0,0,614.758-17.96,753.833-22.024c7.215-.211,14.192,2.816,19.302,8.368c5.111,5.551,7.921,13.148,7.74,21.005l-11.212,486.688Z" fill="url(#eecdm2EBi3G56-fill)"/><g><path d="M356.789,1183.879c-.579,0-1.052-.465-1.06-1.046l-.5-37.08c-.008-.586.46-1.067,1.046-1.075.579-.02,1.067.46,1.075,1.046l.5,37.08c.008.586-.46,1.067-1.046,1.075-.005,0-.01,0-.015,0Z" fill="#f6d6ff"/><path d="M355.564,1093.015c-.579,0-1.052-.466-1.06-1.046l-1.915-142.014c.041-9.897,2.979-17.693,8.732-23.189c9.547-9.119,23.718-8.636,24.309-8.615l240.732-7.035c.615-.028,1.075.444,1.091,1.029.017.586-.444,1.074-1.029,1.091l-240.798,7.035c-.648-.025-13.938-.475-22.84,8.029-5.32,5.082-8.037,12.365-8.076,21.645l1.915,141.996c.008.586-.46,1.067-1.046,1.075-.005-.001-.01-.001-.015-.001Z" fill="#f6d6ff"/></g><path d="M382.441,1376.913c.808-37.79.507-372.426-1.484-401.327s39.342-34.322,102.802-37.574c63.459-3.253,598.891-16.129,612.677-17.346c30.988-2.736,37.402,47.703,34.302,157.202-2.329,82.266-6.189,217.785-7.966,280.106-.529,18.557-14.457,33.28-31.505,33.331-128.847.386-622.678,1.927-655.553,2.993-37.832,1.226-53.593-2.401-53.273-17.385Z" fill="#d574f0"/></g><path d="M1220.598,1475.811h-933.826c-4.128,0-7.505-3.377-7.505-7.505v-29.242c0-4.128,3.377-7.505,7.505-7.505h933.825c4.128,0,7.505,3.377,7.505,7.505v29.242c.001,4.128-3.376,7.505-7.504,7.505Z" fill="url(#eecdm2EBi3G61-fill)"/><g><path d="M1065.86,1331.266h-618.353c-8.91,0-15.889-7.371-15.889-16.781v-317.56c0-9.199,6.931-16.534,15.78-16.699l618.267-11.5c4.337-.065,8.472,1.621,11.612,4.793c3.094,3.128,4.869,7.468,4.869,11.906v329.06c0,9.253-7.306,16.781-16.286,16.781ZM447.437,982.348c-7.681.143-13.697,6.546-13.697,14.577v317.56c0,8.221,6.048,14.66,13.768,14.66h618.353c7.81,0,14.164-6.576,14.164-14.66v-329.06c0-3.884-1.551-7.679-4.256-10.413-2.727-2.755-6.288-4.215-10.064-4.164l-618.268,11.5Z" fill="#f6d6ff"/></g><g><g><path d="M1016.357,1104.141h-131.139c-8.537,0-15.224-6.722-15.224-15.303v-49.901c0-8.449,6.687-15.067,15.224-15.067h131.139c9.026,0,16.944,7.041,16.944,15.067v49.901c0,8.152-7.917,15.303-16.944,15.303ZM885.218,1025.99c-7.47,0-13.102,5.565-13.102,12.946v49.901c0,6.48,4.901,13.182,13.102,13.182h131.139c7.758,0,14.823-6.283,14.823-13.182v-49.901c0-6.896-6.927-12.946-14.823-12.946h-131.139Z" fill="#f6d6ff"/></g><g><path d="M1016.357,1204.272h-131.139c-8.679,0-15.224-6.385-15.224-14.851v-49.901c0-9.714,7.74-15.519,15.224-15.519h131.139c8.868,0,16.944,7.397,16.944,15.519v49.901c0,8.049-7.759,14.851-16.944,14.851Zm-131.139-78.151c-8.202,0-13.102,6.812-13.102,13.398v49.901c0,7.257,5.633,12.73,13.102,12.73h131.139c7.896,0,14.823-5.948,14.823-12.73v-49.901c0-7.012-7.065-13.398-14.823-13.398h-131.139Z" fill="#f6d6ff"/></g><g><path d="M1016.357,1304.402h-131.139c-8.822,0-15.224-6.056-15.224-14.4v-49.901c0-7.681,5.82-15.971,15.224-15.971h131.139c8.868,0,16.944,7.612,16.944,15.971v49.901c0,7.94-7.601,14.4-16.944,14.4Zm-131.139-78.151c-8.093,0-13.102,7.189-13.102,13.85v49.901c0,7.115,5.51,12.278,13.102,12.278h131.139c8.035,0,14.823-5.623,14.823-12.278v-49.901c0-7.119-7.203-13.85-14.823-13.85h-131.139Z" fill="#f6d6ff"/></g></g><path d="M706.99,1279.953c-36.909-.091-204.213-.476-241.198-.13-3.98.038-7.47,3.27-7.47,7.25v4.048c0,3.94,3.167,7.16,7.107,7.25l240.837,5.529c1.952.045,4.374-.699,5.77-2.063c1.396-1.365,2.718-3.234,2.718-5.187v-9.447c0-3.997-3.767-7.24-7.764-7.25Z" fill="#e493ff"/><path d="M485.265,1001.564l319.454-5.156c17.604-.284,32.028,13.909,32.028,31.515v90.028c0,17.612-14.431,31.806-32.041,31.515l-319.454-5.286c-17.202-.285-30.998-14.311-30.998-31.515v-79.586c0-17.21,13.804-31.238,31.011-31.515Z" fill="#e493ff"/><path d="M459.319,1234.165v-55.294c0-11.412,9.344-20.613,20.754-20.438l346.595,5.32c13.83.212,24.927,11.216,24.927,24.716v50.329c0,13.779-11.542,24.898-25.657,24.717l-341.967-4.381c-13.665-.175-24.652-11.302-24.652-24.969Z" fill="#e493ff"/></g></g><g id="eecdm2EBi3G74_ts" transform="translate(1813.00592,1166.167847) scale(1,1)"><g transform="translate(-1813.00592,-1166.167847)"><g transform="translate(0 0.010599)"><path d="M1626.752,845.776c-16.828,1.394-29.782,15.43-29.899,32.314-.714,103.258-2.649,459.422,3.567,585.513.658,13.358,11.565,23.894,24.938,24.093c66.143.982,256.404,3.066,364.447-3.403c22.504-1.347,40.086-19.909,40.151-42.453.311-108.374-.178-413.165-14.455-552.539-1.711-16.699-15.075-29.783-31.806-31.155-72.119-5.915-263.638-20.102-356.943-12.37Z" fill="url(#eecdm2EBi3G76-fill)"/><path d="M1624.287,909.68c-2.1,84.594-8.462,366.008-2.989,469.929.8,15.189,12.999,27.265,28.197,27.882c62.575,2.541,223.051,7.741,314.605-1.239c16.486-1.617,29.203-15.2,29.798-31.755c3.105-86.321,11.766-348.406,6.464-451.164-.846-16.393-13.791-29.562-30.164-30.737-67.734-4.863-241.677-16.206-319.513-10.562-14.612,1.059-26.035,13.001-26.398,27.646Z" fill="url(#eecdm2EBi3G77-fill)"/><path d="M1641.555,928.885c-1.854,77.341-7.462,334.628-2.524,429.641.722,13.888,11.656,24.932,25.273,25.501c56.066,2.344,199.849,7.151,281.877-1.03c14.771-1.473,26.16-13.888,26.688-29.023c2.754-78.92,10.428-318.533,5.643-412.484-.763-14.988-12.366-27.032-27.036-28.112-60.689-4.468-216.541-14.896-286.278-9.761-13.091.964-23.322,11.879-23.643,25.268Z" transform="translate(0-.073159)" fill="#d574f0"/><path d="M1759.977,861.435c.057,3.167,2.572,5.735,5.737,5.844c15.628.539,59.653,2.066,79.33,2.855c3.88.156,6.859-3.383,6.056-7.181l-.137-.648c-.548-2.592-2.74-4.511-5.383-4.706-13.309-.98-53.461-3.639-80.008-2.216-3.189.17-5.652,2.859-5.595,6.052Z" opacity="0.5" fill="#fff"/></g><path d="M1923.921,1262.194l-239.419-2.823c-18.234-.215-32.789-15.266-32.394-33.497l5.579-257.292c.39-17.994,15.213-32.31,33.21-32.075l237.755,3.112c18.135.237,32.632,15.151,32.355,33.285l-3.916,257.004c-.274,18.062-15.107,32.499-33.17,32.286Z" opacity="0.27" fill="#fff"/><g transform="translate(-3.216309-1.677051)"><path d="M1837.651,1348.002c.086,16.601-13.302,30.129-29.903,30.215-16.601.087-33.035-12.413-33.121-29.015-.086-16.601,16.207-31.017,32.808-31.104c16.601-.085,30.129,13.303,30.216,29.904Z" fill="url(#eecdm2EBi3G82-fill)"/><path d="M1802.221,1366.675c-2.032,0-3.74-1.526-3.967-3.546l-2.841-25.305c-.279-2.482,1.764-4.607,4.255-4.426l2.71.197c2.079.151,3.692,1.876,3.703,3.96l.131,25.109c.012,2.211-1.779,4.011-3.991,4.011Z" opacity="0.48" fill="#fff"/><path d="M1810.671,1337.146l.133,25.522c.011,2.186,1.779,3.956,3.965,3.971l.641.004c2.167.014,3.949-1.702,4.016-3.868l.789-25.535c.07-2.26-1.75-4.126-4.01-4.115l-1.563.008c-2.205.012-3.982,1.808-3.971,4.013Z" opacity="0.48" fill="#fff"/><g><path d="M1900.959,1347.672c.066,12.651-10.136,22.959-22.787,23.025s-25.174-9.46-25.239-22.11c-.066-12.651,12.35-23.636,25.001-23.702c12.65-.065,22.959,10.137,23.025,22.787Z" fill="url(#eecdm2EBi3G86-fill)"/><path d="M1868.511,1337.976l.106,20.405c.009,1.748,1.422,3.163,3.17,3.174l.513.003c1.732.011,3.157-1.361,3.211-3.093l.631-20.415c.056-1.807-1.399-3.299-3.206-3.29l-1.25.006c-1.762.012-3.184,1.448-3.175,3.21Z" opacity="0.48" fill="#fff"/><path d="M1880.783,1337.229l-.973,21.364c-.072,1.577,1.848,2.402,2.943,1.264l10.277-10.68c.615-.639.64-1.642.057-2.31l-9.304-10.684c-1.014-1.164-2.93-.496-3,1.046Z" opacity="0.48" fill="#fff"/></g><g><path d="M1715.178,1348.639c.066,12.651,10.375,22.853,23.025,22.787c12.651-.066,25.074-9.721,25.008-22.372s-12.596-23.506-25.246-23.44c-12.651.066-22.853,10.375-22.787,23.025Z" fill="url(#eecdm2EBi3G90-fill)"/><path d="M1747.522,1338.606l.106,20.405c.009,1.748-1.389,3.178-3.137,3.207l-.513.009c-1.732.03-3.171-1.328-3.243-3.059l-.844-20.407c-.075-1.806,1.364-3.313,3.172-3.323l1.25-.007c1.764-.008,3.2,1.413,3.209,3.175Z" opacity="0.48" fill="#fff"/><path d="M1735.244,1337.987l1.195,21.353c.088,1.576-1.823,2.421-2.929,1.295l-10.387-10.572c-.621-.633-.657-1.635-.082-2.31l9.192-10.78c1.002-1.175,2.925-.527,3.011,1.014Z" opacity="0.48" fill="#fff"/></g><path d="M1671.512,1289.885l.28,2.651c.256,2.43,2.312,4.27,4.755,4.257l257.051-1.338c2.627-.014,4.745-2.154,4.731-4.781-.014-2.608-2.124-4.718-4.732-4.732l-257.331-1.313c-2.834-.014-5.051,2.438-4.754,5.256Z" fill="url(#eecdm2EBi3G93-fill)"/><path d="M1865.570093,1295.96c0,0,.175871.943001.118471-4.837999-.219422-4.273807-.118471-5.720808-.118471-5.720808l-188.46182-.771193c-3.333318-.014-5.942104,2.437-5.591599,5.255l.329332,2.651c.301104,2.43,2.719348,4.27,5.592775,4.257c0,0,188.131312-.833,188.131312-.833" transform="matrix(.857547 0 0 1 237.728116 0)" fill="url(#eecdm2EBi3G94-fill)" stroke-linecap="round" stroke-linejoin="round" stroke-dashoffset="98.00995"/><g id="eecdm2EBi3G95_to" transform="translate(1676.671407,1290.710949)"><path d="M1845.897,1290.403c.025,4.75-3.806,8.62-8.556,8.645s-8.62-3.806-8.645-8.556s3.806-8.62,8.556-8.645s8.62,3.807,8.645,8.556Z" transform="translate(-1837.296448,-1290.447449)" fill="#fff"/></g></g><g id="eecdm2EBi3G96_ts" transform="translate(1809.992432,1108.279053) scale(1,1)"><g transform="translate(-1809.992432,-1108.279053)"><path d="M1811.224,1175.237c-36.973.661-67.531-28.824-68.19-65.725-.661-36.973,28.824-67.531,65.725-68.191c36.973-.661,67.531,28.825,68.191,65.726l.001.071c.66,36.902-28.826,67.46-65.727,68.119Zm-2.323-129.963c-34.792.622-62.535,29.375-61.915,64.096.622,34.792,29.375,62.536,64.096,61.915c34.793-.622,62.536-29.375,61.916-64.095l-.001-.072c-.621-34.722-29.374-62.465-64.096-61.844Z" fill="url(#eecdm2EBi3G97-fill)"/><path d="M1792.132,1142.24c-1.871.033-3.44-1.43-3.524-3.311l-2.64-59.086c-.087-1.949.824-3.766,2.435-4.863c1.611-1.098,3.635-1.281,5.417-.485l58.883,26.269c1.943.866,3.208,2.725,3.303,4.851.094,2.126-1.003,4.089-2.862,5.125l-51.055,28.401c-1.675.93-3.785.327-4.714-1.344-.931-1.673-.329-3.784,1.344-4.714l48.694-27.088-54.419-24.277l2.542,56.901c.085,1.913-1.396,3.533-3.308,3.618-.033.002-.064.003-.096.003Z" fill="url(#eecdm2EBi3G98-fill)"/></g></g></g></g><g><g><path d="M1871.36,1139.471c-.328,1.044,3.475,2.634,5.715-1.636.078-2.047,1.323-10.816.1-12.483-6.514-8.88-19.143-20.013-19.143-20.013-2.135,2.106-.376,4.175-.376,4.175l6.126,6.382c-1.281,2.316-2.845,4.271-3.577,7.072-.555,2.121-.216,4.388.856,6.318c1.076,1.937,2.543,4.456,3.93,6.427c2.625,3.73,6.369,3.758,6.369,3.758Z" fill="url(#eecdm2EBi3G101-fill)"/><path d="M1866.462,1120.037l5.583,4.733l1.753,4.712-4.978,5.522c0,0-1.673-9.35-2.917-11.373s-.599-3.002.559-3.594Z" fill="url(#eecdm2EBi3G102-fill)"/></g><g><path d="M1981.026,1488.017c0,0,1.411,7.985,2.102,15.889.27,3.089-2.111,5.771-5.209,5.9-10.526.438-33.041,1.291-41.12.93-1.215-.054-2.009-1.297-1.559-2.427.377-.947,1.103-1.712,2.029-2.137l37.191-17.093l6.566-1.062Z" fill="url(#eecdm2EBi3G104-fill)"/><path d="M1982.181,1483.326l-1.133,9.551c0,0-6.515,3.033-10.964-.382l2.698-10.644l9.399,1.475Z" fill="url(#eecdm2EBi3G105-fill)"/><path d="M1981.33,1303.767c.49,2.494,2.627,124.464-10.41,179.122-.213.892.24,1.811,1.088,2.158c2,.817,5.92,2,10.618,2.158c1.455.049,2.759-.897,3.17-2.293c3.727-12.682,21.585-76.22,23.914-136.917c2.603-67.823,0-2.309,0-2.309l-1.527-41.924-26.853.005Z" fill="url(#eecdm2EBi3G106-fill)"/><path d="M2023.808,1492.183c0,0,2.245,4.031,4.419,14.742.392,1.934-.959,3.786-2.924,3.979-3.476.342-8.826.781-13.112.752-1.976-.014-3.518-1.734-3.28-3.695.475-3.91,1.954-10.324,6.523-15.324l8.374-.454Z" fill="url(#eecdm2EBi3G107-fill)"/><path d="M2025.78,1479.899l-2.648,14.443c0,0-2.618,1.948-7.797.536l1.264-15.54l9.181.561Z" fill="url(#eecdm2EBi3G108-fill)"/><path d="M2032.933,1307.51c10.663,64.352-2.313,159.052-6.689,177.587-.268,1.135-1.184,2.004-2.334,2.195-1.953.324-5.169.588-8.34-.333-1.092-.317-1.86-1.302-1.904-2.44-.587-14.985.47-106.978-9.466-143.334-.503-1.842-1.629-3.449-3.185-4.556l-19.284-13.709-1.478-22.16l52.68,6.75Z" fill="url(#eecdm2EBi3G109-fill)"/><g><path d="M1964.988,1185.575c31.955-.528,67.214,8.39,67.214,8.39c9.525,55.579,1.666,119.685,1.666,119.685-24.739,6.488-52.646-3.966-52.646-3.966-4.112-23.231-23.296-88.609-23.296-88.609-15.613-1.938-28.475-6.442-39.067-12.398c8.079-9.365,11.888-21.281,13.542-28.326c11.298,3.512,22.731,5.387,32.587,5.224Z" fill="url(#eecdm2EBi3G111-fill)"/><path d="M1870.598,1138.507c3.139-3.791,7.112-1.998,7.112-1.998c4.702,19.864,29.359,35.97,54.691,43.842-1.654,7.044-5.463,18.961-13.542,28.326-42.04-23.637-48.261-70.17-48.261-70.17Z" fill="url(#eecdm2EBi3G112-fill)"/></g><path d="M2019.945,1224.908l12.257-30.942c0,0,29.848,20.28,34.757,45.994-5.64.415-15.902,1.882-25.948,6.954-2.208-12.142-21.066-22.006-21.066-22.006Z" fill="url(#eecdm2EBi3G113-fill)"/><path d="M1997.356,1159.633l10.168,29.404c.168.487-.032,1.026-.483,1.276-2.771,1.532-12.757,5.962-24.791-1.668-1.254-.795-2.107-2.091-2.297-3.563l-3.293-25.449h20.696Z" fill="url(#eecdm2EBi3G114-fill)"/><g><path d="M1975.233,1132.404c0,0-11.165,21.017-9.734,29.507s15.269,7.88,27.352.985l8.443-22.694-26.061-7.798Z" fill="url(#eecdm2EBi3G116-fill)"/><path d="M1992.316,1151.751c-.491-.218-.672-.818-.378-1.268.895-1.366,2.571-4.154,3.106-6.595c0,0,2.007-1.286-5.109-2.989s-17.727-4.347-19.957-10.404c-2.175-5.905,3.539-20.756,12.655-8.923.347.45,1.026.46,1.372.01c1.494-1.945,5.423-5.982,10.878-3.535c5.104,2.29,5.679,6.031,5.609,7.916-.021.554.475.986,1.02.882c2.581-.492,8.774-.915,11.664,5.438c2.381,5.233.833,8.195-.576,9.644-.457.469-.257,1.242.37,1.434c1.696.519,3.886,1.957,3.667,5.931-.303,5.494-6.445,5.009-8.194,4.759-.287-.041-.575.057-.769.272-1.499,1.659-8.255,8.705-15.567,9.554-.633.073-1.124-.552-.916-1.154l3.164-9.198c.147-.427-.057-.896-.47-1.079l-1.569-.695Z" fill="url(#eecdm2EBi3G117-fill)"/><path d="M1991.044,1153.057c0,0,7.949-5.454,8.53-.861s-7.159,6.653-10.992,4.941l2.462-4.08Z" fill="url(#eecdm2EBi3G118-fill)"/></g><path d="M2041.011,1246.914c0,0,10.433,47.064.982,73.524c11.585,5.372,9.445,4.359,9.445,4.359s22.919-66.965,15.52-84.837c-14.588-1.548-21.824,2.371-25.947,6.954Z" fill="url(#eecdm2EBi3G119-fill)"/><path d="M2041.993,1320.437c0,0-5.97,7.727-5.492,10.804.477,3.078.592,4.332.592,4.332s3-2.052,2.811-4.673c-.417,8.321-3.202,17.781-.67,17.326c2.532-.456,15.64-12.538,12.677-25.419-6.726-4.674-8.611-4.166-9.918-2.37Z" fill="url(#eecdm2EBi3G120-fill)"/></g></g><g><g id="eecdm2EBi3G122_tr" transform="translate(377.810108,1159.336812) rotate(-5)"><g transform="scale(1,1.006456) translate(-407.753018,-1140.608671)"><path d="M565.726,1173.637L320.44,1334.71c-10.288,6.755-12.64,20.842-5.106,30.574l1.237,1.598c6.666,8.61,19.068,10.147,27.634,3.426l232.097-182.104-10.576-14.567Z" fill="url(#eecdm2EBi3G123-fill)"/><ellipse rx="136.123" ry="133.667" transform="matrix(.9732-.2299 0.2299 0.9732 675.153284 1085.755728)" opacity="0.27" fill="#fff"/><path d="M640.998,940.992c-81.412,19.234-132.099,99.633-113.213,179.576c18.887,79.944,100.195,129.159,181.607,109.925s132.099-99.632,113.213-179.576C803.718,970.974,722.41,921.758,640.998,940.992Zm63.371,268.237c-69.453,16.408-138.817-25.577-154.929-93.777s27.129-136.789,96.582-153.197s138.818,25.577,154.93,93.777c16.111,68.201-27.13,136.789-96.583,153.197Z" fill="url(#eecdm2EBi3G125-fill)"/><path d="M542.995,1135.406c-.221,0-.429-.135-.511-.354-1.244-3.317-2.374-6.724-3.357-10.127-.084-.29.083-.591.373-.675.291-.084.592.084.675.373.975,3.376,2.095,6.755,3.33,10.046.105.282-.037.597-.319.702-.062.024-.127.035-.191.035Zm-8.551-40.714c-.288,0-.528-.225-.544-.516-.528-9.669-.017-19.424,1.518-28.995c4.345-27.101,16.618-52.231,35.49-72.672c19.322-20.928,44.328-35.485,72.317-42.098c26.322-6.218,53.639-4.952,78.995,3.664.286.097.438.407.341.692-.096.286-.407.44-.692.341-25.163-8.55-52.27-9.807-78.394-3.635-56.017,13.234-98.009,57.935-106.98,113.88-1.522,9.494-2.029,19.171-1.506,28.763.016.301-.214.558-.515.574-.01.002-.02.002-.03.002Z" fill="url(#eecdm2EBi3G126-fill)"/><path d="M333.836,1368.293c-.018,0-.037-.001-.055-.003-8.894-.899-14.314-4.579-16.108-10.935-1.807-6.397.841-13.359,6.59-17.324l29.253-20.177c.246-.175.586-.109.759.139.171.248.109.588-.14.758l-29.253,20.177c-5.364,3.701-7.839,10.183-6.16,16.131c1.662,5.883,6.765,9.297,15.169,10.147.3.03.518.297.488.598-.029.28-.266.489-.543.489Z" fill="url(#eecdm2EBi3G127-fill)"/><path d="M362.84,1314.631c-.173,0-.344-.082-.45-.235-.171-.248-.109-.588.14-.759l3.791-2.615c.247-.175.587-.11.758.139.171.248.109.588-.139.758l-3.792,2.615c-.094.066-.202.097-.308.097Z" fill="url(#eecdm2EBi3G128-fill)"/></g></g><g><g id="eecdm2EBi3G130_tr" transform="translate(380.90033,1388.679046) rotate(0)"><g transform="translate(-381.053772,-1394.503126)"><path d="M381.016422,1395.177936c0,0-8.008422,9.275064-11.027422,21.354064-3.02,12.079-5.804,62.799-5.804,62.799l-5.732,3.466-.697,2.893l18.921001,24.168-5.009001-19.592c-.439-2.833.322-8.579.082-8.699c9.06-24.159,28.439-92.214,28.439-92.214" transform="translate(.094037 0)" fill="url(#eecdm2EBi3G131-fill)"/><path d="M375.03,1510.782l-7.079-2.979c-1.325-.557-2.319-1.692-2.686-3.082-1.001-3.796-5.344-12.381-5.344-12.381s-6.887,9.188-6.887,9.188l-1.65-.694l3.38-13.882c.85-3.493,3.841-6.05,7.424-6.346c0,0-1.42,5.259,1.302,8.995s10.605,16.329,10.605,16.329s1.454.381,2.845,1.287c2.064,1.343.36,4.52-1.91,3.565Z" fill="url(#eecdm2EBi3G132-fill)"/></g></g><path d="M400.189,1389.353v-45.298h-.001l-24.159,6.04l4.987422,45.082936" transform="translate(.094037 0)" fill="url(#eecdm2EBi3G133-fill)"/><path d="M407.247,1486c-.261-.004-.518.017-.781,0c1.167-14.564,6.503-78.663,11.841-102.687c6.04-27.179-9.059-81.536-9.059-81.536l-27.179,27.179l15.099,51.338c-10.348,15.521,1.688,106.417,1.429,106.378l.017.202-3.94,5.417.479,2.937l24.068,14.203-9.47-15.379c-1.504-2.443-2.334-5.21-2.504-8.052Z" fill="url(#eecdm2EBi3G134-fill)"/><path d="M376.677,1181.236c0,0-52.918,73.428,0,111.077l5.392-4.807c0,0-26.272-30.973,0-68.889l-5.392-37.381Z" fill="url(#eecdm2EBi3G135-fill)"/><path d="M420.806,1511.657h-7.681c-1.438,0-2.794-.66-3.671-1.799-2.394-3.111-7.355-9.182-9.727-9.34-3.193-.213-2.785,11.139-2.785,11.139h-1.79l-2.267-14.107c-.57-3.549,1.195-7.066,4.382-8.728c0,0,.73,5.398,4.688,7.786s16.107,10.939,16.107,10.939s1.488-.212,3.122.083c2.423.439,2.085,4.027-.378,4.027Z" fill="url(#eecdm2EBi3G136-fill)"/><path d="M416.169,1255.82c0,0-.888,5.443.413,20.408s7.521,50.099,6.255,83.714c0,0-17.683,4.121-48.404,2.169c0,0-12.965-52.484-9.807-72.437s20.292-34.267,20.292-34.267l31.251.413Z" fill="url(#eecdm2EBi3G137-fill)"/><polygon points="403.103,1155.823 405.265,1181.236 384.731,1181.236 389.837,1142.445" fill="url(#eecdm2EBi3G138-fill)"/><path d="M378.649,1177.723c7.086-.391,22.93-1.114,34.155-.502c5.909.322,10.86,4.562,12.069,10.355l2.737,13.119c1.02,4.886.867,9.945-.445,14.761l-10.996,40.364c0,0-9.78,5.877-31.251-.412c0,0-18.856-44.964-11.138-73.728.6-2.234,2.559-3.83,4.869-3.957Z" fill="url(#eecdm2EBi3G139-fill)"/><path d="M424.336,1185.222c3.024,7.967,5.756,16.322,8.691,24.146c1.492,3.916,3.006,7.755,4.625,11.281.819,1.756,1.719,3.369,2.544,4.832.827,1.448,1.758,2.652,2.242,3.207.095.082-.223.145-.33.15-.064.008,2.045.346,2.692.454l2.528-.015c3.623-.186,7.726-.825,11.842-1.625c8.302-1.548,16.933-3.721,25.796-5.366l.068-.013c1.696-.315,3.64.013,3.64,2.501.207,1.119-.213,2.211-1.007,2.914-3.573,3.146-7.361,5.73-11.29,8.245-1.978,1.209-3.99,2.395-6.035,3.533-2.086,1.063-4.177,2.135-6.35,3.126-4.374,1.906-8.892,3.661-14.097,4.789-1.368.229-2.718.469-4.126.657-1.578.055-3.012.195-4.736.095-.916-.091-1.836-.203-2.753-.337-.489-.086-.849-.095-1.442-.259-.629-.189-1.256-.4-1.875-.632-1.293-.464-2.128-1.025-3.178-1.609-.872-.575-1.667-1.176-2.438-1.792-2.846-2.424-4.613-4.83-6.17-7.139-1.553-2.307-2.784-4.619-3.889-6.886-2.217-4.526-3.948-9.01-5.352-13.526-2.846-9.049-4.774-17.943-5.588-27.389-.39-4.525,2.962-8.509,7.487-8.899c3.745-.323,7.12,1.918,8.392,5.266l.109.291Z" transform="translate(-1.497474-1.773925)" fill="url(#eecdm2EBi3G140-fill)"/><path d="M482.176,1226.347l3.664-8.698l19.285-4.805c0,0,1.543,3.343-6.557,4.805c0,0,2.893,3.198,1.35,6.958-1.543,3.761-17.935,7.529-17.742,1.74Z" fill="url(#eecdm2EBi3G141-fill)"/><path d="M411.797,1126.474c.733.432,6.51,20.807,1.669,29.349s-19.623-1.026-23.629-13.378s2.43-27.488,21.96-15.971Z" fill="url(#eecdm2EBi3G142-fill)"/><path d="M373.484,1142.445c-3.316,16.245-14.302,11.799-22.083,19.027-12.611,11.714-30.652-.362-48.191,10.739-12.662,8.014-18.762,28.516-12.686,45.069c8.416,22.927,37.176,32.355,52.08,25.372c14.244-6.674,12.216-26.661,31.381-34.386c8.137-3.28,12.153-1.149,17.026-6.009c8.53-8.509,6.228-25.02,5.342-31.382-1.924-13.803-6.552-16.302-4.34-22.368c4.302-11.799,24.368-9.364,26.04-17.694c1.523-7.585-13.021-21.963-26.708-19.697-21.177,3.507-16.384,24.092-17.861,31.329Z" transform="matrix(.930905 0.032252-.035428 1.022583 66.131848-37.990931)" fill="url(#eecdm2EBi3G143-fill)"/></g></g><g id="eecdm2EBi3G144_tr" transform="translate(861.52652,750.104309) rotate(25.611408)"><g transform="translate(-861.52652,-750.104309)"><path d="M941.766,689.835l-39.319,66.091c-9.366,15.743-29.794,20.931-45.537,11.565l-8.46-5.033c-15.743-9.366-20.931-29.794-11.565-45.537l39.319-66.091c9.366-15.743,29.794-20.932,45.537-11.565l8.46,5.033c15.743,9.366,20.931,29.794,11.565,45.537Zm-94.307,33.377c-5.897,9.912-2.63,22.775,7.282,28.672l8.46,5.033c9.912,5.897,22.775,2.63,28.672-7.282l39.319-66.091c5.897-9.912,2.63-22.774-7.282-28.672l-8.46-5.033c-9.912-5.897-22.774-2.63-28.672,7.282l-39.319,66.091Z" fill="url(#eecdm2EBi3G145-fill)"/><path d="M886.168,783.288l-39.319,66.091c-9.366,15.743-29.794,20.931-45.537,11.565l-8.46-5.033c-15.743-9.366-20.931-29.794-11.565-45.537l39.319-66.091c9.366-15.743,29.794-20.931,45.537-11.565l8.46,5.033c15.743,9.366,20.931,29.793,11.565,45.537Zm-51.565-37.046c-1.299,1.258-2.455,2.706-3.422,4.332l-39.319,66.091c-5.897,9.912-2.631,22.774,7.282,28.672l8.46,5.033c9.912,5.897,22.775,2.63,28.672-7.282l39.319-66.091c5.897-9.912,2.63-22.774-7.282-28.672l-8.46-5.033c-8.286-4.929-18.633-3.456-25.25,2.95Z" fill="url(#eecdm2EBi3G146-fill)"/><path d="M847.365,744.427c-3.685-6.354-3.921-14.467.094-21.215l39.319-66.091c4.015-6.748,11.257-10.412,18.599-10.206l6.827-11.476c-13.688-3.14-28.445,2.689-36.001,15.391l-39.319,66.091c-7.556,12.702-5.637,28.451,3.653,38.982l6.828-11.476Z" fill="url(#eecdm2EBi3G147-fill)"/></g></g><g id="eecdm2EBi3G148_tr" transform="translate(1720.593628,727.594513) rotate(0)"><g transform="translate(-1720.593628,-727.594513)"><path d="M1651.92,621.788l8.46-5.033c15.743-9.366,36.171-4.178,45.537,11.565l39.319,66.091c9.366,15.743,4.178,36.171-11.565,45.537l-8.46,5.033c-15.743,9.366-36.171,4.178-45.537-11.565l-39.319-66.091c-9.367-15.743-4.179-36.171,11.565-45.537Zm43.422,12.824c-5.897-9.912-18.759-13.179-28.672-7.282l-8.46,5.033c-9.912,5.897-13.179,18.759-7.282,28.672l39.319,66.091c5.897,9.912,18.759,13.179,28.672,7.282l8.46-5.033c9.912-5.897,13.179-18.759,7.282-28.672l-39.319-66.091Z" fill="url(#eecdm2EBi3G149-fill)"/><path d="M1707.517,715.241l8.46-5.033c15.743-9.366,36.171-4.178,45.537,11.565l39.319,66.091c9.366,15.743,4.178,36.171-11.565,45.537l-8.46,5.033c-15.743,9.366-36.171,4.178-45.537-11.565l-39.319-66.091c-9.366-15.743-4.178-36.171,11.565-45.537Zm40,8.491c-6.617-6.406-16.964-7.879-25.249-2.95l-8.46,5.033c-9.912,5.897-13.179,18.759-7.282,28.672l39.319,66.091c5.897,9.912,18.759,13.179,28.672,7.282l8.46-5.033c9.912-5.897,13.179-18.759,7.282-28.672l-39.319-66.091c-.968-1.626-2.124-3.074-3.423-4.332Z" fill="url(#eecdm2EBi3G150-fill)"/><path d="M1734.755,721.918c3.685-6.354,3.921-14.467-.094-21.215l-39.319-66.091c-4.015-6.748-11.257-10.412-18.599-10.206l-6.827-11.476c13.688-3.14,28.445,2.689,36.001,15.391l39.319,66.091c7.557,12.702,5.637,28.451-3.653,38.982l-6.828-11.476Z" fill="url(#eecdm2EBi3G151-fill)"/></g></g><g id="eecdm2EBi3G152_tr" transform="translate(1408.752,1383.173311) rotate(-1.55078)"><g transform="translate(-1397.407256,-1384.451309)"><path d="M1398.972,1391.543c96.8-48.052,171.476-123.642,179.807-281.813-.001,0-251.944,84.115-179.807,281.813Z" fill="#f6d6ff"/><path d="M1414.628,1356.058c.53,0,1.026-.33,1.211-.859c43.997-125.424,129.305-197.996,130.162-198.715.543-.456.614-1.266.159-1.808-.455-.543-1.263-.617-1.808-.159-.862.723-86.694,73.715-130.935,199.832-.234.669.118,1.401.786,1.635.141.052.284.074.425.074Z" fill="#fff"/></g></g><g id="eecdm2EBi3G155_tr" transform="translate(1411.568299,1388.679045) rotate(-22.391647)"><g transform="translate(-1408.752,-1388.848998)"><path d="M1408.752,1387.634c68.036,6.279,133.311-9.603,190.301-91.944-.001-.001-163.487-38.378-190.301,91.944Z" fill="#e493ff"/><path d="M1447.354,1365.889c.364,0,.726-.154.979-.454c38.399-45.263,124.304-59.869,125.168-60.011.699-.115,1.173-.775,1.058-1.474-.115-.701-.766-1.192-1.475-1.058-.872.143-87.705,14.909-126.708,60.884-.458.54-.392,1.35.149,1.808.241.205.536.305.829.305Z" fill="#fff"/></g></g></g></g></svg>
