<svg width="660.004" height="94.303" viewBox="0 0 660.004 94.303" xmlns="http://www.w3.org/2000/svg"><g id="svgGroup" stroke-linecap="round" fill-rule="evenodd" font-size="9pt" stroke="#000" stroke-width="0.25mm" fill="#000" style="stroke:#000;stroke-width:0.25mm;fill:#000"><path d="M 137.2 20.8 L 149.7 20.8 L 149.7 50.3 A 36.182 36.182 0 0 1 149.043 57.413 Q 148.182 61.707 146.19 65.029 A 19.716 19.716 0 0 1 143.6 68.45 A 19.701 19.701 0 0 1 134.198 73.916 Q 131.009 74.777 127.201 74.885 A 38.953 38.953 0 0 1 126.1 74.9 A 28.646 28.646 0 0 1 119.405 74.168 A 17.444 17.444 0 0 1 108.4 66.6 Q 105.6 70.8 101.25 72.85 Q 96.9 74.9 90.7 74.9 A 32.221 32.221 0 0 1 83.795 74.206 Q 79.34 73.228 76.026 70.874 A 18.439 18.439 0 0 1 73.25 68.45 A 21.123 21.123 0 0 1 68.4 59.679 Q 67.462 56.422 67.257 52.53 A 42.395 42.395 0 0 1 67.2 50.3 L 67.2 20.8 L 79.7 20.8 L 79.7 49.2 A 34.735 34.735 0 0 0 79.91 53.159 Q 80.383 57.273 81.927 59.772 A 9.313 9.313 0 0 0 82.35 60.4 A 8.409 8.409 0 0 0 87.038 63.535 Q 88.493 63.938 90.254 63.992 A 17.978 17.978 0 0 0 90.8 64 A 14.589 14.589 0 0 0 94.132 63.644 Q 96.509 63.086 98.169 61.657 A 8.73 8.73 0 0 0 99.4 60.35 Q 102.091 56.843 102.196 49.78 A 38.985 38.985 0 0 0 102.2 49.2 L 102.2 20.8 L 114.7 20.8 L 114.7 49.2 A 32.23 32.23 0 0 0 114.921 53.114 Q 115.488 57.727 117.5 60.35 A 8.949 8.949 0 0 0 122.617 63.607 Q 124.197 64 126.1 64 A 14.764 14.764 0 0 0 129.266 63.683 Q 131.297 63.237 132.779 62.163 A 8.064 8.064 0 0 0 134.55 60.4 Q 137.031 57.03 137.189 50.154 A 41.439 41.439 0 0 0 137.2 49.2 L 137.2 20.8 Z M 647.5 20.8 L 660 20.8 L 660 66.1 Q 660 88.362 642.737 93.05 A 39.889 39.889 0 0 1 632.3 94.3 Q 625 94.3 618.35 92.35 A 34.722 34.722 0 0 1 612.806 90.223 A 25.41 25.41 0 0 1 607.4 86.7 L 613 77.3 A 23.548 23.548 0 0 0 617.972 80.523 A 29.872 29.872 0 0 0 621.3 81.9 Q 626.2 83.6 631.6 83.6 Q 636.765 83.6 640.205 82.033 A 11.286 11.286 0 0 0 643.65 79.65 A 12.14 12.14 0 0 0 646.349 75.198 Q 647.5 71.984 647.5 67.5 L 647.5 65 Q 644.5 68.3 640.2 70.05 A 22.866 22.866 0 0 1 640.133 70.077 Q 635.861 71.8 630.9 71.8 Q 621.23 71.8 615.276 66.981 A 19.405 19.405 0 0 1 614.05 65.9 A 18.542 18.542 0 0 1 609.297 58.107 Q 608.336 55.162 608.036 51.584 A 40.512 40.512 0 0 1 607.9 48.2 L 607.9 20.8 L 620.4 20.8 L 620.4 46.6 A 24.818 24.818 0 0 0 620.686 50.503 Q 621.015 52.562 621.721 54.209 A 10.689 10.689 0 0 0 623.65 57.25 Q 626.9 60.8 632.9 60.8 A 17.68 17.68 0 0 0 637.538 60.223 A 12.852 12.852 0 0 0 643.55 56.7 A 13.15 13.15 0 0 0 646.603 51.394 Q 647.22 49.416 647.412 47.041 A 27.721 27.721 0 0 0 647.5 44.8 L 647.5 20.8 Z M 0 66.8 L 4.5 56.7 Q 8.8 60.1 15.05 62.25 Q 21.3 64.4 27.6 64.4 A 39.107 39.107 0 0 0 31.675 64.202 Q 35.962 63.752 38.626 62.274 A 10.444 10.444 0 0 0 39.25 61.9 A 9.657 9.657 0 0 0 41.402 60.04 A 7.131 7.131 0 0 0 43.1 55.3 Q 43.1 52.3 40.95 50.35 A 13.518 13.518 0 0 0 37.991 48.334 A 17.999 17.999 0 0 0 35.5 47.3 A 69.005 69.005 0 0 0 33.203 46.583 Q 30.604 45.817 27.015 44.927 A 238.241 238.241 0 0 0 26.5 44.8 Q 18.5 42.9 13.55 41 Q 8.6 39.1 5.05 35.05 Q 1.684 31.21 1.51 24.807 A 25.979 25.979 0 0 1 1.5 24.1 Q 1.5 18.3 4.65 13.55 A 18.973 18.973 0 0 1 9.677 8.485 A 26.367 26.367 0 0 1 14.15 6 Q 20.5 3.2 29.7 3.2 Q 36.1 3.2 42.3 4.8 A 39.591 39.591 0 0 1 48.242 6.822 A 30.633 30.633 0 0 1 53 9.4 L 48.9 19.5 Q 44.3 16.8 39.3 15.4 A 37.657 37.657 0 0 0 32.567 14.137 A 32.63 32.63 0 0 0 29.6 14 Q 22.45 14 18.706 16.242 A 9.91 9.91 0 0 0 18.15 16.6 Q 14.4 19.2 14.4 23.5 A 6.814 6.814 0 0 0 14.841 25.993 A 6.183 6.183 0 0 0 16.55 28.4 A 13.697 13.697 0 0 0 19.333 30.284 A 18.495 18.495 0 0 0 22 31.4 A 69.005 69.005 0 0 0 24.297 32.117 Q 26.896 32.883 30.485 33.773 A 238.241 238.241 0 0 0 31 33.9 Q 36.614 35.196 40.777 36.569 A 60.446 60.446 0 0 1 43.8 37.65 Q 48.8 39.6 52.35 43.6 A 13.512 13.512 0 0 1 55.314 49.337 Q 55.827 51.35 55.891 53.717 A 25.25 25.25 0 0 1 55.9 54.4 Q 55.9 60.2 52.75 64.9 Q 49.6 69.6 43.2 72.4 A 31.209 31.209 0 0 1 36.585 74.41 Q 33.512 75.002 29.994 75.151 A 56.902 56.902 0 0 1 27.6 75.2 Q 19.5 75.2 11.95 72.9 A 44.047 44.047 0 0 1 6.73 70.964 Q 2.75 69.175 0 66.8 Z M 325.4 66.8 L 329.9 56.7 Q 334.2 60.1 340.45 62.25 Q 346.7 64.4 353 64.4 A 39.107 39.107 0 0 0 357.075 64.202 Q 361.362 63.752 364.026 62.274 A 10.444 10.444 0 0 0 364.65 61.9 A 9.657 9.657 0 0 0 366.802 60.04 A 7.131 7.131 0 0 0 368.5 55.3 Q 368.5 52.3 366.35 50.35 A 13.518 13.518 0 0 0 363.391 48.334 A 17.999 17.999 0 0 0 360.9 47.3 A 69.005 69.005 0 0 0 358.603 46.583 Q 356.004 45.817 352.415 44.927 A 238.241 238.241 0 0 0 351.9 44.8 Q 343.9 42.9 338.95 41 Q 334 39.1 330.45 35.05 Q 327.084 31.21 326.91 24.807 A 25.979 25.979 0 0 1 326.9 24.1 Q 326.9 18.3 330.05 13.55 A 18.973 18.973 0 0 1 335.077 8.485 A 26.367 26.367 0 0 1 339.55 6 Q 345.9 3.2 355.1 3.2 Q 361.5 3.2 367.7 4.8 A 39.591 39.591 0 0 1 373.642 6.822 A 30.633 30.633 0 0 1 378.4 9.4 L 374.3 19.5 Q 369.7 16.8 364.7 15.4 A 37.657 37.657 0 0 0 357.967 14.137 A 32.63 32.63 0 0 0 355 14 Q 347.85 14 344.106 16.242 A 9.91 9.91 0 0 0 343.55 16.6 Q 339.8 19.2 339.8 23.5 A 6.814 6.814 0 0 0 340.241 25.993 A 6.183 6.183 0 0 0 341.95 28.4 A 13.697 13.697 0 0 0 344.733 30.284 A 18.495 18.495 0 0 0 347.4 31.4 A 69.005 69.005 0 0 0 349.697 32.117 Q 352.296 32.883 355.885 33.773 A 238.241 238.241 0 0 0 356.4 33.9 Q 362.014 35.196 366.177 36.569 A 60.446 60.446 0 0 1 369.2 37.65 Q 374.2 39.6 377.75 43.6 A 13.512 13.512 0 0 1 380.714 49.337 Q 381.227 51.35 381.291 53.717 A 25.25 25.25 0 0 1 381.3 54.4 Q 381.3 60.2 378.15 64.9 Q 375 69.6 368.6 72.4 A 31.209 31.209 0 0 1 361.985 74.41 Q 358.912 75.002 355.394 75.151 A 56.902 56.902 0 0 1 353 75.2 Q 344.9 75.2 337.35 72.9 A 44.047 44.047 0 0 1 332.13 70.964 Q 328.15 69.175 325.4 66.8 Z M 445.6 43.6 L 445.6 74.2 L 433.1 74.2 L 433.1 45.2 Q 433.1 38.2 429.8 34.65 Q 426.5 31.1 420.4 31.1 A 18.553 18.553 0 0 0 415.815 31.636 A 13.049 13.049 0 0 0 409.5 35.25 Q 405.998 38.883 405.562 45.314 A 27.885 27.885 0 0 0 405.5 47.2 L 405.5 74.2 L 393 74.2 L 393 0 L 405.5 0 L 405.5 27 A 20.046 20.046 0 0 1 412.172 22.351 A 23.539 23.539 0 0 1 413.15 21.95 A 26.125 26.125 0 0 1 419.574 20.407 A 32.655 32.655 0 0 1 423.3 20.2 A 28.094 28.094 0 0 1 430.312 21.03 A 20.201 20.201 0 0 1 439.5 26.1 A 18.647 18.647 0 0 1 444.26 33.977 Q 445.6 38.163 445.6 43.6 Z M 205.5 58.5 L 212.1 66.2 A 21.615 21.615 0 0 1 203.822 72.399 A 25.605 25.605 0 0 1 203.1 72.7 A 30.514 30.514 0 0 1 195.479 74.616 A 38.949 38.949 0 0 1 190.7 74.9 Q 181.9 74.9 175.2 71.4 Q 168.5 67.9 164.85 61.65 A 26.884 26.884 0 0 1 161.289 49.928 A 32.626 32.626 0 0 1 161.2 47.5 A 29.43 29.43 0 0 1 162.587 38.355 A 26.451 26.451 0 0 1 164.75 33.45 Q 168.3 27.2 174.55 23.7 A 27.596 27.596 0 0 1 185.796 20.323 A 33.712 33.712 0 0 1 188.7 20.2 A 29.929 29.929 0 0 1 198.169 21.667 A 27.314 27.314 0 0 1 202.35 23.45 Q 208.5 26.7 212.1 32.75 A 25.475 25.475 0 0 1 215.399 42.388 A 32.842 32.842 0 0 1 215.7 46.9 L 174.8 54.9 Q 176.7 59.5 180.9 61.9 A 17.751 17.751 0 0 0 186.487 63.904 A 24.522 24.522 0 0 0 191 64.3 A 21.438 21.438 0 0 0 198.634 62.983 A 19.267 19.267 0 0 0 205.5 58.5 Z M 267.6 58.5 L 274.2 66.2 A 21.615 21.615 0 0 1 265.922 72.399 A 25.605 25.605 0 0 1 265.2 72.7 A 30.514 30.514 0 0 1 257.579 74.616 A 38.949 38.949 0 0 1 252.8 74.9 Q 244 74.9 237.3 71.4 Q 230.6 67.9 226.95 61.65 A 26.884 26.884 0 0 1 223.389 49.928 A 32.626 32.626 0 0 1 223.3 47.5 A 29.43 29.43 0 0 1 224.687 38.355 A 26.451 26.451 0 0 1 226.85 33.45 Q 230.4 27.2 236.65 23.7 A 27.596 27.596 0 0 1 247.896 20.323 A 33.712 33.712 0 0 1 250.8 20.2 A 29.929 29.929 0 0 1 260.269 21.667 A 27.314 27.314 0 0 1 264.45 23.45 Q 270.6 26.7 274.2 32.75 A 25.475 25.475 0 0 1 277.499 42.388 A 32.842 32.842 0 0 1 277.8 46.9 L 236.9 54.9 Q 238.8 59.5 243 61.9 A 17.751 17.751 0 0 0 248.587 63.904 A 24.522 24.522 0 0 0 253.1 64.3 A 21.438 21.438 0 0 0 260.734 62.983 A 19.267 19.267 0 0 0 267.6 58.5 Z M 316.3 62.4 L 319.8 71.3 A 13.667 13.667 0 0 1 316.503 73.275 A 17.237 17.237 0 0 1 314.45 74 A 23.855 23.855 0 0 1 308.453 74.892 A 26.848 26.848 0 0 1 307.8 74.9 A 27.062 27.062 0 0 1 302.456 74.405 Q 299.233 73.755 296.751 72.253 A 14.596 14.596 0 0 1 294.2 70.3 A 14.742 14.742 0 0 1 290.27 63.632 Q 289.59 61.3 289.442 58.503 A 30.195 30.195 0 0 1 289.4 56.9 L 289.4 9 L 301.9 9 L 301.9 21.2 L 316.2 21.2 L 316.2 31.2 L 301.9 31.2 L 301.9 56.6 A 12.524 12.524 0 0 0 302.09 58.857 Q 302.509 61.141 303.85 62.55 A 6.385 6.385 0 0 0 307.123 64.369 A 9.659 9.659 0 0 0 309.3 64.6 A 13.222 13.222 0 0 0 312.566 64.216 A 9.928 9.928 0 0 0 316.3 62.4 Z M 594.5 62.4 L 598 71.3 A 13.667 13.667 0 0 1 594.703 73.275 A 17.237 17.237 0 0 1 592.65 74 A 23.855 23.855 0 0 1 586.653 74.892 A 26.848 26.848 0 0 1 586 74.9 A 27.062 27.062 0 0 1 580.656 74.405 Q 577.433 73.755 574.951 72.253 A 14.596 14.596 0 0 1 572.4 70.3 A 14.742 14.742 0 0 1 568.47 63.632 Q 567.79 61.3 567.642 58.503 A 30.195 30.195 0 0 1 567.6 56.9 L 567.6 9 L 580.1 9 L 580.1 21.2 L 594.4 21.2 L 594.4 31.2 L 580.1 31.2 L 580.1 56.6 A 12.524 12.524 0 0 0 580.29 58.857 Q 580.709 61.141 582.05 62.55 A 6.385 6.385 0 0 0 585.323 64.369 A 9.659 9.659 0 0 0 587.5 64.6 A 13.222 13.222 0 0 0 590.766 64.216 A 9.928 9.928 0 0 0 594.5 62.4 Z M 476.945 73.666 A 32.298 32.298 0 0 0 486 74.9 A 36.008 36.008 0 0 0 489.506 74.733 A 29.389 29.389 0 0 0 500.7 71.4 Q 507.2 67.9 510.85 61.65 A 25.959 25.959 0 0 0 513.213 56.3 A 29.288 29.288 0 0 0 514.5 47.5 Q 514.5 39.6 510.85 33.4 Q 507.2 27.2 500.7 23.7 A 28.284 28.284 0 0 0 494.687 21.307 A 33.001 33.001 0 0 0 486 20.2 A 35.702 35.702 0 0 0 483.263 20.303 A 29.493 29.493 0 0 0 471.4 23.7 Q 464.9 27.2 461.25 33.4 A 25.582 25.582 0 0 0 458.82 38.934 A 29.213 29.213 0 0 0 457.6 47.5 A 32.626 32.626 0 0 0 457.689 49.928 A 26.884 26.884 0 0 0 461.25 61.65 Q 464.9 67.9 471.4 71.4 A 28.353 28.353 0 0 0 476.945 73.666 Z M 557.4 20.2 L 557.4 32.1 A 18.974 18.974 0 0 0 555.966 31.885 Q 555.288 31.811 554.674 31.801 A 11.53 11.53 0 0 0 554.5 31.8 A 20.219 20.219 0 0 0 549.859 32.302 A 13.442 13.442 0 0 0 543.1 36.05 Q 539 40.3 539 48.3 L 539 74.2 L 526.5 74.2 L 526.5 20.8 L 538.4 20.8 L 538.4 28.6 A 17.104 17.104 0 0 1 547.945 21.508 Q 551.012 20.527 554.797 20.282 A 40.287 40.287 0 0 1 557.4 20.2 Z M 486 64.2 A 16.952 16.952 0 0 0 491.76 63.256 A 14.811 14.811 0 0 0 497.4 59.6 A 15.506 15.506 0 0 0 501.619 51.069 A 21.775 21.775 0 0 0 501.9 47.5 A 20.302 20.302 0 0 0 501.213 42.083 A 15.16 15.16 0 0 0 497.4 35.4 A 15.101 15.101 0 0 0 486.853 30.818 A 20.047 20.047 0 0 0 486 30.8 A 16.911 16.911 0 0 0 480.341 31.712 A 14.589 14.589 0 0 0 474.65 35.4 Q 470.2 40 470.2 47.5 A 20.536 20.536 0 0 0 470.872 52.892 A 15.207 15.207 0 0 0 474.65 59.6 A 14.891 14.891 0 0 0 484.937 64.172 A 19.874 19.874 0 0 0 486 64.2 Z M 173.3 46.8 L 173.3 46.9 L 203.5 41.1 Q 202.2 36.2 198.25 33.2 A 14.669 14.669 0 0 0 190.989 30.333 A 19.128 19.128 0 0 0 188.7 30.2 Q 181.8 30.2 177.55 34.7 A 15.119 15.119 0 0 0 173.802 41.941 A 22.252 22.252 0 0 0 173.3 46.8 Z M 235.4 46.8 L 235.4 46.9 L 265.6 41.1 Q 264.3 36.2 260.35 33.2 A 14.669 14.669 0 0 0 253.089 30.333 A 19.128 19.128 0 0 0 250.8 30.2 Q 243.9 30.2 239.65 34.7 A 15.119 15.119 0 0 0 235.902 41.941 A 22.252 22.252 0 0 0 235.4 46.8 Z" vector-effect="non-scaling-stroke"/></g></svg>